<svg width="1440" height="368" viewBox="0 0 1440 368" fill="none" xmlns="http://www.w3.org/2000/svg">
<g clip-path="url(#clip0_10_760)">
<mask id="mask0_10_760" style="mask-type:alpha" maskUnits="userSpaceOnUse" x="0" y="124" width="1440" height="261">
<rect y="124" width="1440" height="261" fill="#D9D9D9"/>
</mask>
<g mask="url(#mask0_10_760)">
<path d="M378.562 130.954C402.229 130.76 421.509 133.838 429.555 135.676L429.944 135.77C433.992 136.798 439.12 139.676 444.876 143.766C450.831 147.998 457.511 153.567 464.442 159.839C478.304 172.385 493.204 187.775 505.383 200.996L505.838 201.483C515.485 211.61 530.529 216.786 545.565 219.11C560.827 221.468 575.993 220.874 585.284 219.601L585.3 219.597L585.318 219.596C634.197 216.362 670.465 219.631 695.952 225.04C721.254 230.41 735.98 237.903 741.849 243.276C771.136 248.582 800.114 257.49 825.113 266.807C866.072 262.641 914.289 254.328 965.385 239.792L971.269 238.118L982.18 235.013C1093.75 203.306 1170.05 182.931 1321.54 182.643L1324.49 182.642C1386.15 182.693 1419.35 188.062 1435.75 194.838C1444.07 198.275 1448.19 202.126 1449.41 205.95C1450.6 209.705 1448.94 213.236 1446.12 216.02C1451.03 227.036 1456.22 242.8 1458.61 259.482C1461.01 276.236 1460.59 293.971 1454.19 308.76L1487.8 373.299L1488.03 373.745L1487.58 373.974L1366.73 435.972L1366.67 436.004L1366.6 436.018L760.659 557.06L760.58 557.075L760.499 557.066L-9.29932 461.014L-9.56029 460.982L-9.68103 460.749L-132.184 225.495L-132.415 225.052L-131.972 224.82L-130.409 224.014C-113.547 215.395 -74.8938 198.204 -42.8547 192.366L-41.9446 192.204C-22.8944 188.932 -7.14098 192.465 9.46966 196.186L13.0661 196.99C31.1342 200.996 50.5988 204.687 76.8054 199.912L78.3533 199.623C110.729 193.425 134.237 179.518 154.471 167.545L158.95 164.9C169.289 158.819 178.87 153.453 188.456 150.222L189.018 150.037C200.973 146.18 221.968 144.673 243.394 144.35C265.121 144.022 287.376 144.911 301.285 145.836C326.891 134.604 354.93 131.148 378.562 130.954ZM1362.09 205.077C1345.23 204.226 1307.37 202.316 1263.55 203.981C1220.4 205.62 1171.53 210.723 1131.26 223.697L1129.35 224.32C1083.29 239.552 1049.71 250.324 1023.99 257.313C1001.57 263.405 985.101 266.629 971.519 267.422C981.451 268.49 995.521 268.622 1011.19 267.293C1030.16 265.682 1051.44 261.934 1070.49 255.141L1072.59 254.4C1094.68 246.719 1126.92 238.368 1156.42 232.138C1171.64 228.923 1186.15 226.271 1198.16 224.567C1210.15 222.867 1219.7 222.104 1225 222.692L1225.59 222.751C1231.85 223.333 1242.78 222.707 1255.79 221.961L1261.88 221.615C1276.38 220.807 1292.72 220.059 1307.59 220.731C1316.09 221.115 1324.12 221.964 1331.07 223.534C1338.01 225.102 1343.9 227.4 1348.09 230.711L1348.52 231.046C1352.93 234.425 1356.42 235.384 1359.17 234.844C1361.99 234.287 1364.2 232.102 1365.88 228.902C1369.18 222.63 1370.3 212.805 1370.3 205.44C1369.24 205.422 1367.5 205.346 1365.15 205.23L1362.09 205.077ZM671.973 227.951C631.491 222.492 591.091 226.281 572.689 228.374C655.396 227.863 714.552 241.766 735.945 249.577C734.941 248.368 733.386 246.996 731.213 245.532C728.245 243.531 724.165 241.38 718.877 239.244C708.63 235.107 693.872 231.037 673.92 228.22L671.973 227.951ZM422.522 143.951C381.838 131.918 344.484 143.791 327.724 152.764C417.275 127.829 465.994 172.676 480.825 201.082C478.069 185.544 463.776 156.569 423.544 144.258L422.522 143.951Z" fill="url(#paint0_radial_10_760)"/>
<path d="M158.402 256.187V265.376H145.395V256.187H147.345V263.84H150.915V256.187H152.874V263.84H156.451V256.187H158.402ZM166.894 256.187H169.043L165.242 260.603L169.367 265.376H167.118L163.158 260.711V265.376H161.199V256.187H163.158V260.644L166.894 256.187ZM178.996 260.76C178.996 261.524 178.896 262.202 178.697 262.794C178.498 263.386 178.208 263.887 177.826 264.297C177.444 264.7 176.985 265.01 176.448 265.226C175.911 265.436 175.305 265.542 174.63 265.542C173.999 265.542 173.421 265.436 172.895 265.226C172.369 265.01 171.913 264.7 171.525 264.297C171.144 263.887 170.847 263.386 170.637 262.794C170.427 262.202 170.322 261.524 170.322 260.76C170.322 259.748 170.496 258.89 170.845 258.187C171.199 257.479 171.702 256.939 172.355 256.568C173.008 256.198 173.786 256.012 174.688 256.012C175.535 256.012 176.282 256.198 176.929 256.568C177.577 256.939 178.083 257.479 178.448 258.187C178.813 258.895 178.996 259.753 178.996 260.76ZM172.331 260.76C172.331 261.43 172.411 262.003 172.571 262.479C172.737 262.955 172.992 263.32 173.335 263.574C173.678 263.823 174.121 263.948 174.663 263.948C175.205 263.948 175.648 263.823 175.991 263.574C176.334 263.32 176.586 262.955 176.747 262.479C176.907 262.003 176.987 261.43 176.987 260.76C176.987 260.091 176.907 259.524 176.747 259.059C176.586 258.588 176.334 258.231 175.991 257.988C175.648 257.739 175.203 257.614 174.655 257.614C173.847 257.614 173.257 257.886 172.887 258.428C172.516 258.97 172.331 259.748 172.331 260.76ZM188.799 265.376H186.832V257.714H184.284C184.173 259.109 184.035 260.301 183.869 261.292C183.703 262.282 183.495 263.09 183.246 263.715C182.997 264.335 182.69 264.789 182.325 265.077C181.959 265.365 181.52 265.508 181.005 265.508C180.778 265.508 180.573 265.492 180.391 265.459C180.208 265.431 180.045 265.387 179.901 265.326V263.79C179.995 263.823 180.097 263.851 180.208 263.873C180.319 263.895 180.432 263.906 180.548 263.906C180.753 263.906 180.941 263.823 181.113 263.657C181.29 263.486 181.453 263.217 181.603 262.852C181.752 262.487 181.888 262.005 182.009 261.408C182.131 260.805 182.242 260.074 182.341 259.216C182.441 258.353 182.529 257.343 182.607 256.187H188.799V265.376ZM195.199 256.012C196.361 256.012 197.238 256.27 197.831 256.784C198.428 257.299 198.727 258.101 198.727 259.192V265.376H197.341L196.967 264.072H196.901C196.641 264.404 196.372 264.678 196.096 264.894C195.819 265.11 195.498 265.27 195.133 265.376C194.773 265.486 194.333 265.542 193.813 265.542C193.265 265.542 192.775 265.442 192.344 265.243C191.912 265.038 191.572 264.728 191.323 264.313C191.074 263.898 190.949 263.372 190.949 262.736C190.949 261.79 191.301 261.079 192.003 260.603C192.712 260.127 193.78 259.864 195.208 259.814L196.801 259.756V259.275C196.801 258.638 196.652 258.184 196.353 257.913C196.06 257.642 195.645 257.506 195.108 257.506C194.649 257.506 194.203 257.573 193.771 257.706C193.34 257.839 192.919 258.002 192.51 258.195L191.879 256.818C192.327 256.58 192.836 256.386 193.406 256.236C193.982 256.087 194.579 256.012 195.199 256.012ZM196.793 260.984L195.606 261.026C194.632 261.059 193.949 261.225 193.556 261.524C193.163 261.823 192.966 262.232 192.966 262.753C192.966 263.206 193.102 263.538 193.373 263.749C193.644 263.953 194.001 264.056 194.444 264.056C195.119 264.056 195.678 263.865 196.121 263.483C196.569 263.096 196.793 262.528 196.793 261.781V260.984Z" fill="white"/>
<path d="M144.008 285.187H146.133L148.018 290.433C148.101 290.671 148.175 290.906 148.242 291.138C148.314 291.365 148.375 291.589 148.424 291.811C148.48 292.032 148.524 292.253 148.557 292.475H148.607C148.662 292.187 148.74 291.866 148.839 291.512C148.944 291.152 149.061 290.792 149.188 290.433L150.998 285.187H153.098L149.155 295.637C148.928 296.235 148.648 296.744 148.316 297.165C147.99 297.591 147.603 297.912 147.154 298.128C146.706 298.349 146.194 298.46 145.619 298.46C145.342 298.46 145.101 298.443 144.896 298.41C144.692 298.382 144.517 298.352 144.374 298.318V296.758C144.49 296.786 144.636 296.811 144.813 296.833C144.991 296.855 145.173 296.866 145.361 296.866C145.71 296.866 146.012 296.797 146.266 296.658C146.521 296.52 146.736 296.324 146.914 296.069C147.091 295.82 147.237 295.535 147.354 295.214L147.677 294.351L144.008 285.187ZM158.194 294.542C157.326 294.542 156.573 294.373 155.937 294.035C155.3 293.698 154.81 293.18 154.467 292.483C154.124 291.786 153.953 290.9 153.953 289.827C153.953 288.709 154.141 287.796 154.517 287.088C154.893 286.379 155.414 285.856 156.078 285.519C156.747 285.181 157.514 285.012 158.377 285.012C158.925 285.012 159.42 285.068 159.863 285.178C160.311 285.283 160.69 285.414 161 285.568L160.419 287.129C160.081 286.991 159.736 286.874 159.381 286.78C159.027 286.686 158.687 286.639 158.36 286.639C157.824 286.639 157.375 286.758 157.016 286.996C156.661 287.234 156.396 287.588 156.219 288.059C156.047 288.529 155.961 289.113 155.961 289.81C155.961 290.485 156.05 291.055 156.227 291.52C156.404 291.979 156.667 292.328 157.016 292.566C157.364 292.798 157.793 292.915 158.302 292.915C158.806 292.915 159.257 292.854 159.655 292.732C160.054 292.61 160.43 292.453 160.784 292.259V293.952C160.436 294.151 160.062 294.298 159.664 294.392C159.265 294.492 158.775 294.542 158.194 294.542ZM170.504 294.376H168.537V286.714H165.989C165.878 288.109 165.74 289.301 165.574 290.292C165.408 291.282 165.2 292.09 164.951 292.715C164.702 293.335 164.395 293.789 164.03 294.077C163.665 294.365 163.225 294.508 162.71 294.508C162.483 294.508 162.278 294.492 162.096 294.459C161.913 294.431 161.75 294.387 161.606 294.326V292.79C161.7 292.823 161.802 292.851 161.913 292.873C162.024 292.895 162.137 292.906 162.253 292.906C162.458 292.906 162.646 292.823 162.818 292.657C162.995 292.486 163.158 292.217 163.308 291.852C163.457 291.487 163.593 291.005 163.714 290.408C163.836 289.805 163.947 289.074 164.046 288.216C164.146 287.353 164.235 286.343 164.312 285.187H170.504V294.376ZM181.437 289.76C181.437 290.524 181.337 291.202 181.138 291.794C180.938 292.386 180.648 292.887 180.266 293.297C179.884 293.7 179.425 294.01 178.888 294.226C178.351 294.436 177.745 294.542 177.07 294.542C176.439 294.542 175.861 294.436 175.335 294.226C174.81 294.01 174.353 293.7 173.966 293.297C173.584 292.887 173.288 292.386 173.078 291.794C172.867 291.202 172.762 290.524 172.762 289.76C172.762 288.748 172.937 287.89 173.285 287.187C173.639 286.479 174.143 285.939 174.796 285.568C175.449 285.198 176.226 285.012 177.128 285.012C177.975 285.012 178.722 285.198 179.37 285.568C180.017 285.939 180.523 286.479 180.889 287.187C181.254 287.895 181.437 288.753 181.437 289.76ZM174.771 289.76C174.771 290.43 174.851 291.003 175.012 291.479C175.178 291.955 175.432 292.32 175.775 292.574C176.118 292.823 176.561 292.948 177.104 292.948C177.646 292.948 178.089 292.823 178.432 292.574C178.775 292.32 179.027 291.955 179.187 291.479C179.347 291.003 179.428 290.43 179.428 289.76C179.428 289.091 179.347 288.524 179.187 288.059C179.027 287.588 178.775 287.231 178.432 286.988C178.089 286.739 177.643 286.614 177.095 286.614C176.287 286.614 175.698 286.886 175.327 287.428C174.956 287.97 174.771 288.748 174.771 289.76ZM191.406 287.544C191.406 288.075 191.243 288.51 190.916 288.847C190.595 289.179 190.152 289.398 189.588 289.503V289.569C190.191 289.647 190.695 289.86 191.099 290.209C191.503 290.557 191.705 291.041 191.705 291.661C191.705 292.187 191.572 292.655 191.306 293.064C191.046 293.468 190.631 293.789 190.061 294.027C189.497 294.259 188.758 294.376 187.845 294.376H183.678V285.187H187.828C188.514 285.187 189.126 285.261 189.663 285.411C190.205 285.56 190.631 285.806 190.941 286.15C191.251 286.493 191.406 286.957 191.406 287.544ZM189.671 291.595C189.671 291.141 189.497 290.815 189.148 290.615C188.805 290.416 188.301 290.317 187.637 290.317H185.637V292.94H187.679C188.299 292.94 188.785 292.837 189.14 292.632C189.494 292.422 189.671 292.076 189.671 291.595ZM189.422 287.718C189.422 287.359 189.286 287.093 189.015 286.922C188.744 286.744 188.318 286.656 187.737 286.656H185.637V288.88H187.471C188.113 288.88 188.597 288.789 188.924 288.607C189.256 288.418 189.422 288.122 189.422 287.718ZM195.78 285.187V289.877C195.78 290.026 195.775 290.217 195.764 290.449C195.758 290.676 195.747 290.914 195.73 291.163C195.714 291.407 195.697 291.631 195.681 291.836C195.664 292.04 195.65 292.193 195.639 292.292L200.263 285.187H202.637V294.376H200.769V289.735C200.769 289.492 200.775 289.21 200.786 288.889C200.802 288.568 200.819 288.258 200.835 287.959C200.858 287.66 200.871 287.433 200.877 287.278L196.27 294.376H193.904V285.187H195.78ZM206.364 294.376H204.189L206.754 290.624C206.405 290.513 206.079 290.35 205.774 290.134C205.476 289.913 205.232 289.625 205.044 289.271C204.856 288.911 204.762 288.474 204.762 287.959C204.762 287.063 205.083 286.376 205.725 285.901C206.367 285.425 207.205 285.187 208.24 285.187H212.407V294.376H210.456V290.823H208.605L206.364 294.376ZM206.671 287.976C206.671 288.441 206.845 288.795 207.194 289.038C207.542 289.276 208.018 289.395 208.622 289.395H210.456V286.656H208.339C207.758 286.656 207.335 286.783 207.069 287.038C206.804 287.287 206.671 287.599 206.671 287.976ZM221.479 285.187V289.877C221.479 290.026 221.474 290.217 221.463 290.449C221.457 290.676 221.446 290.914 221.43 291.163C221.413 291.407 221.396 291.631 221.38 291.836C221.363 292.04 221.349 292.193 221.338 292.292L225.962 285.187H228.336V294.376H226.468V289.735C226.468 289.492 226.474 289.21 226.485 288.889C226.501 288.568 226.518 288.258 226.535 287.959C226.557 287.66 226.571 287.433 226.576 287.278L221.969 294.376H219.604V285.187H221.479ZM242.497 286.722H239.476V294.376H237.533V286.722H234.528V285.187H242.497V286.722ZM247.876 285.012C249.038 285.012 249.915 285.27 250.507 285.784C251.105 286.299 251.404 287.101 251.404 288.192V294.376H250.018L249.644 293.072H249.578C249.318 293.404 249.049 293.678 248.772 293.894C248.496 294.11 248.175 294.27 247.81 294.376C247.45 294.486 247.01 294.542 246.49 294.542C245.942 294.542 245.452 294.442 245.021 294.243C244.589 294.038 244.249 293.728 244 293.313C243.75 292.898 243.626 292.372 243.626 291.736C243.626 290.79 243.977 290.079 244.68 289.603C245.389 289.127 246.457 288.864 247.884 288.814L249.478 288.756V288.275C249.478 287.638 249.329 287.184 249.03 286.913C248.736 286.642 248.321 286.506 247.785 286.506C247.325 286.506 246.88 286.573 246.448 286.706C246.017 286.839 245.596 287.002 245.187 287.195L244.556 285.818C245.004 285.58 245.513 285.386 246.083 285.236C246.659 285.087 247.256 285.012 247.876 285.012ZM249.47 289.984L248.283 290.026C247.309 290.059 246.625 290.225 246.232 290.524C245.84 290.823 245.643 291.232 245.643 291.753C245.643 292.206 245.779 292.538 246.05 292.749C246.321 292.953 246.678 293.056 247.121 293.056C247.796 293.056 248.355 292.865 248.797 292.483C249.246 292.096 249.47 291.528 249.47 290.781V289.984ZM258.85 285.012C259.94 285.012 260.814 285.411 261.473 286.208C262.137 287.005 262.469 288.189 262.469 289.76C262.469 290.801 262.314 291.678 262.004 292.392C261.7 293.1 261.271 293.637 260.717 294.002C260.169 294.362 259.53 294.542 258.8 294.542C258.335 294.542 257.931 294.481 257.588 294.359C257.245 294.237 256.951 294.08 256.708 293.886C256.465 293.687 256.26 293.471 256.094 293.238H255.978C256.005 293.46 256.03 293.706 256.052 293.977C256.08 294.243 256.094 294.486 256.094 294.708V298.451H254.135V285.187H255.729L256.002 286.457H256.094C256.265 286.197 256.473 285.956 256.716 285.734C256.965 285.513 257.264 285.339 257.613 285.212C257.967 285.079 258.379 285.012 258.85 285.012ZM258.327 286.606C257.79 286.606 257.358 286.714 257.032 286.93C256.711 287.14 256.476 287.458 256.326 287.884C256.182 288.311 256.105 288.845 256.094 289.486V289.76C256.094 290.441 256.163 291.019 256.301 291.495C256.445 291.966 256.68 292.325 257.007 292.574C257.339 292.818 257.787 292.94 258.352 292.94C258.827 292.94 259.22 292.81 259.53 292.549C259.846 292.289 260.081 291.919 260.236 291.437C260.391 290.956 260.468 290.388 260.468 289.735C260.468 288.745 260.291 287.976 259.937 287.428C259.588 286.88 259.052 286.606 258.327 286.606ZM266.603 285.187V289.877C266.603 290.026 266.597 290.217 266.586 290.449C266.58 290.676 266.569 290.914 266.553 291.163C266.536 291.407 266.52 291.631 266.503 291.836C266.486 292.04 266.472 292.193 266.461 292.292L271.085 285.187H273.459V294.376H271.591V289.735C271.591 289.492 271.597 289.21 271.608 288.889C271.625 288.568 271.641 288.258 271.658 287.959C271.68 287.66 271.694 287.433 271.699 287.278L267.092 294.376H264.727V285.187H266.603ZM282.299 281.46V285.095C283.284 285.178 284.128 285.422 284.831 285.826C285.534 286.224 286.073 286.758 286.45 287.428C286.826 288.097 287.014 288.88 287.014 289.777C287.014 290.662 286.832 291.443 286.466 292.118C286.107 292.793 285.575 293.332 284.873 293.736C284.175 294.14 283.318 294.387 282.299 294.475V298.46H280.448V294.475C279.463 294.392 278.619 294.149 277.917 293.745C277.214 293.341 276.671 292.801 276.29 292.126C275.908 291.451 275.717 290.668 275.717 289.777C275.717 288.875 275.897 288.086 276.256 287.411C276.616 286.736 277.147 286.199 277.85 285.801C278.553 285.402 279.427 285.167 280.473 285.095V281.46H282.299ZM280.473 286.614C279.875 286.681 279.372 286.852 278.962 287.129C278.558 287.4 278.254 287.76 278.049 288.208C277.845 288.656 277.742 289.179 277.742 289.777C277.742 290.38 277.842 290.909 278.041 291.362C278.246 291.811 278.55 292.17 278.954 292.442C279.364 292.713 279.87 292.881 280.473 292.948V286.614ZM282.299 286.639V292.948C282.897 292.881 283.395 292.713 283.793 292.442C284.197 292.165 284.499 291.802 284.698 291.354C284.903 290.9 285.005 290.375 285.005 289.777C285.005 288.88 284.773 288.158 284.308 287.61C283.849 287.063 283.179 286.739 282.299 286.639ZM289.264 294.376V285.187H291.223V288.856H293.074C293.937 288.856 294.648 288.955 295.207 289.154C295.766 289.348 296.181 289.641 296.452 290.034C296.723 290.427 296.859 290.92 296.859 291.512C296.859 292.093 296.729 292.599 296.469 293.031C296.209 293.457 295.802 293.789 295.249 294.027C294.695 294.259 293.97 294.376 293.074 294.376H289.264ZM291.223 292.94H292.941C293.528 292.94 294.001 292.834 294.36 292.624C294.726 292.408 294.908 292.054 294.908 291.562C294.908 291.102 294.739 290.779 294.402 290.59C294.07 290.397 293.583 290.3 292.941 290.3H291.223V292.94ZM298.278 294.376V285.187H300.237V294.376H298.278Z" fill="white"/>
<path d="M153.123 316.544C153.123 317.075 152.959 317.51 152.633 317.847C152.312 318.179 151.869 318.398 151.305 318.503V318.569C151.908 318.647 152.411 318.86 152.815 319.209C153.219 319.557 153.421 320.041 153.421 320.661C153.421 321.187 153.289 321.655 153.023 322.064C152.763 322.468 152.348 322.789 151.778 323.027C151.213 323.259 150.475 323.376 149.562 323.376H145.395V314.187H149.545C150.231 314.187 150.843 314.261 151.379 314.411C151.922 314.56 152.348 314.806 152.658 315.15C152.968 315.493 153.123 315.957 153.123 316.544ZM151.388 320.595C151.388 320.141 151.213 319.815 150.865 319.615C150.522 319.416 150.018 319.317 149.354 319.317H147.354V321.94H149.396C150.015 321.94 150.502 321.837 150.856 321.632C151.211 321.422 151.388 321.076 151.388 320.595ZM151.139 316.718C151.139 316.359 151.003 316.093 150.732 315.922C150.461 315.744 150.035 315.656 149.454 315.656H147.354V317.88H149.188C149.83 317.88 150.314 317.789 150.641 317.607C150.973 317.418 151.139 317.122 151.139 316.718ZM163.756 318.76C163.756 319.524 163.656 320.202 163.457 320.794C163.258 321.386 162.967 321.887 162.585 322.297C162.204 322.7 161.744 323.01 161.208 323.226C160.671 323.436 160.065 323.542 159.39 323.542C158.759 323.542 158.181 323.436 157.655 323.226C157.129 323.01 156.673 322.7 156.285 322.297C155.903 321.887 155.607 321.386 155.397 320.794C155.187 320.202 155.082 319.524 155.082 318.76C155.082 317.748 155.256 316.89 155.604 316.187C155.959 315.479 156.462 314.939 157.115 314.568C157.768 314.198 158.546 314.012 159.448 314.012C160.294 314.012 161.042 314.198 161.689 314.568C162.336 314.939 162.843 315.479 163.208 316.187C163.573 316.895 163.756 317.753 163.756 318.76ZM157.09 318.76C157.09 319.43 157.171 320.003 157.331 320.479C157.497 320.955 157.752 321.32 158.095 321.574C158.438 321.823 158.881 321.948 159.423 321.948C159.965 321.948 160.408 321.823 160.751 321.574C161.094 321.32 161.346 320.955 161.506 320.479C161.667 320.003 161.747 319.43 161.747 318.76C161.747 318.091 161.667 317.524 161.506 317.059C161.346 316.588 161.094 316.231 160.751 315.988C160.408 315.739 159.962 315.614 159.415 315.614C158.607 315.614 158.017 315.886 157.646 316.428C157.276 316.97 157.09 317.748 157.09 318.76ZM174.024 314.187V323.376H172.057V315.731H167.956V323.376H165.997V314.187H174.024ZM181.536 314.012C182.626 314.012 183.501 314.411 184.159 315.208C184.823 316.005 185.155 317.189 185.155 318.76C185.155 319.801 185 320.678 184.69 321.392C184.386 322.1 183.957 322.637 183.404 323.002C182.856 323.362 182.217 323.542 181.486 323.542C181.021 323.542 180.618 323.481 180.274 323.359C179.931 323.237 179.638 323.08 179.395 322.886C179.151 322.687 178.946 322.471 178.78 322.238H178.664C178.692 322.46 178.717 322.706 178.739 322.977C178.766 323.243 178.78 323.486 178.78 323.708V327.451H176.821V314.187H178.415L178.689 315.457H178.78C178.952 315.197 179.159 314.956 179.403 314.734C179.652 314.513 179.951 314.339 180.299 314.212C180.653 314.079 181.066 314.012 181.536 314.012ZM181.013 315.606C180.476 315.606 180.045 315.714 179.718 315.93C179.397 316.14 179.162 316.458 179.013 316.884C178.869 317.311 178.791 317.845 178.78 318.486V318.76C178.78 319.441 178.849 320.019 178.988 320.495C179.132 320.966 179.367 321.325 179.693 321.574C180.025 321.818 180.474 321.94 181.038 321.94C181.514 321.94 181.907 321.81 182.217 321.549C182.532 321.289 182.767 320.919 182.922 320.437C183.077 319.956 183.155 319.388 183.155 318.735C183.155 317.745 182.978 316.976 182.624 316.428C182.275 315.88 181.738 315.606 181.013 315.606ZM195.548 318.76C195.548 319.524 195.448 320.202 195.249 320.794C195.05 321.386 194.759 321.887 194.377 322.297C193.996 322.7 193.536 323.01 193 323.226C192.463 323.436 191.857 323.542 191.182 323.542C190.551 323.542 189.972 323.436 189.447 323.226C188.921 323.01 188.465 322.7 188.077 322.297C187.695 321.887 187.399 321.386 187.189 320.794C186.979 320.202 186.874 319.524 186.874 318.76C186.874 317.748 187.048 316.89 187.396 316.187C187.751 315.479 188.254 314.939 188.907 314.568C189.56 314.198 190.338 314.012 191.24 314.012C192.086 314.012 192.833 314.198 193.481 314.568C194.128 314.939 194.635 315.479 195 316.187C195.365 316.895 195.548 317.753 195.548 318.76ZM188.882 318.76C188.882 319.43 188.963 320.003 189.123 320.479C189.289 320.955 189.544 321.32 189.887 321.574C190.23 321.823 190.673 321.948 191.215 321.948C191.757 321.948 192.2 321.823 192.543 321.574C192.886 321.32 193.138 320.955 193.298 320.479C193.459 320.003 193.539 319.43 193.539 318.76C193.539 318.091 193.459 317.524 193.298 317.059C193.138 316.588 192.886 316.231 192.543 315.988C192.2 315.739 191.754 315.614 191.207 315.614C190.399 315.614 189.809 315.886 189.438 316.428C189.068 316.97 188.882 317.748 188.882 318.76ZM201.491 323.542C200.622 323.542 199.87 323.373 199.233 323.035C198.597 322.698 198.107 322.18 197.764 321.483C197.421 320.786 197.25 319.9 197.25 318.827C197.25 317.709 197.438 316.796 197.814 316.088C198.19 315.379 198.71 314.856 199.375 314.519C200.044 314.181 200.811 314.012 201.674 314.012C202.222 314.012 202.717 314.068 203.16 314.178C203.608 314.283 203.987 314.414 204.297 314.568L203.716 316.129C203.378 315.991 203.032 315.874 202.678 315.78C202.324 315.686 201.984 315.639 201.657 315.639C201.12 315.639 200.672 315.758 200.312 315.996C199.958 316.234 199.693 316.588 199.516 317.059C199.344 317.529 199.258 318.113 199.258 318.81C199.258 319.485 199.347 320.055 199.524 320.52C199.701 320.979 199.964 321.328 200.312 321.566C200.661 321.798 201.09 321.915 201.599 321.915C202.103 321.915 202.554 321.854 202.952 321.732C203.351 321.61 203.727 321.453 204.081 321.259V322.952C203.732 323.151 203.359 323.298 202.96 323.392C202.562 323.492 202.072 323.542 201.491 323.542ZM206.239 323.376V314.187H208.198V317.856H210.049C210.913 317.856 211.624 317.955 212.183 318.154C212.742 318.348 213.157 318.641 213.428 319.034C213.699 319.427 213.834 319.92 213.834 320.512C213.834 321.093 213.704 321.599 213.444 322.031C213.184 322.457 212.778 322.789 212.224 323.027C211.671 323.259 210.946 323.376 210.049 323.376H206.239ZM208.198 321.94H209.917C210.503 321.94 210.976 321.834 211.336 321.624C211.701 321.408 211.884 321.054 211.884 320.562C211.884 320.102 211.715 319.779 211.377 319.59C211.045 319.397 210.558 319.3 209.917 319.3H208.198V321.94ZM215.254 323.376V314.187H217.213V323.376H215.254Z" fill="white"/>
<path d="M376.5 230.493C379.296 230.493 381.562 232.759 381.562 235.555V244.555C381.562 247.351 379.296 249.618 376.5 249.618H367.5C364.704 249.618 362.438 247.351 362.438 244.555V235.555C362.438 232.759 364.704 230.493 367.5 230.493H376.5Z" stroke="white" stroke-width="1.125" stroke-linecap="round" stroke-linejoin="round"/>
<ellipse cx="377.294" cy="234.141" rx="1.05882" ry="1.02857" fill="white"/>
<path d="M370.04 236.615C370.836 236.214 371.74 236.067 372.624 236.195L372.959 236.256C373.733 236.43 374.445 236.812 375.013 237.364C375.662 237.994 376.087 238.813 376.222 239.699L376.258 240.026C376.312 240.789 376.149 241.554 375.785 242.236C375.37 243.014 374.714 243.642 373.913 244.033C373.113 244.425 372.207 244.56 371.324 244.422C370.442 244.284 369.623 243.879 368.988 243.261C368.352 242.643 367.93 241.844 367.786 240.976C367.643 240.108 367.785 239.218 368.191 238.435C368.597 237.652 369.245 237.016 370.04 236.615Z" stroke="white" stroke-width="1.125" stroke-linecap="round" stroke-linejoin="round"/>
<path d="M394.345 237.811V247H392.395V237.811H394.345ZM393.382 234.292C393.681 234.292 393.938 234.372 394.154 234.532C394.376 234.693 394.486 234.969 394.486 235.362C394.486 235.75 394.376 236.026 394.154 236.192C393.938 236.353 393.681 236.433 393.382 236.433C393.072 236.433 392.81 236.353 392.594 236.192C392.383 236.026 392.278 235.75 392.278 235.362C392.278 234.969 392.383 234.693 392.594 234.532C392.81 234.372 393.072 234.292 393.382 234.292ZM401.932 237.637C402.967 237.637 403.772 237.905 404.348 238.442C404.929 238.973 405.219 239.828 405.219 241.007V247H403.269V241.372C403.269 240.658 403.122 240.124 402.829 239.77C402.535 239.41 402.082 239.23 401.467 239.23C400.576 239.23 399.957 239.504 399.608 240.052C399.265 240.6 399.093 241.394 399.093 242.435V247H397.143V237.811H398.662L398.936 239.056H399.043C399.243 238.735 399.489 238.472 399.782 238.268C400.081 238.057 400.413 237.9 400.778 237.794C401.149 237.689 401.534 237.637 401.932 237.637ZM414.126 244.377C414.126 244.98 413.979 245.489 413.686 245.904C413.393 246.319 412.964 246.635 412.399 246.851C411.84 247.061 411.154 247.166 410.341 247.166C409.699 247.166 409.146 247.119 408.681 247.025C408.221 246.936 407.787 246.798 407.377 246.61V244.925C407.815 245.13 408.304 245.307 408.847 245.456C409.395 245.605 409.912 245.68 410.399 245.68C411.041 245.68 411.503 245.581 411.785 245.381C412.067 245.177 412.208 244.905 412.208 244.568C412.208 244.369 412.15 244.192 412.034 244.037C411.924 243.876 411.713 243.713 411.403 243.547C411.099 243.375 410.651 243.171 410.059 242.933C409.478 242.7 408.988 242.468 408.589 242.235C408.191 242.003 407.889 241.723 407.685 241.397C407.48 241.065 407.377 240.642 407.377 240.127C407.377 239.313 407.698 238.696 408.34 238.276C408.988 237.85 409.843 237.637 410.905 237.637C411.47 237.637 412.001 237.695 412.499 237.811C413.003 237.922 413.495 238.085 413.977 238.301L413.362 239.77C412.947 239.587 412.529 239.438 412.109 239.322C411.694 239.2 411.271 239.139 410.839 239.139C410.335 239.139 409.951 239.217 409.685 239.372C409.425 239.527 409.295 239.748 409.295 240.036C409.295 240.251 409.359 240.434 409.486 240.583C409.613 240.733 409.832 240.882 410.142 241.032C410.457 241.181 410.894 241.367 411.453 241.588C412.001 241.798 412.474 242.02 412.873 242.252C413.277 242.479 413.586 242.758 413.802 243.09C414.018 243.422 414.126 243.851 414.126 244.377ZM419.654 245.589C419.909 245.589 420.161 245.567 420.41 245.522C420.659 245.473 420.886 245.415 421.09 245.348V246.826C420.875 246.92 420.595 247 420.252 247.066C419.909 247.133 419.552 247.166 419.181 247.166C418.661 247.166 418.193 247.08 417.778 246.909C417.363 246.732 417.034 246.43 416.791 246.004C416.547 245.578 416.425 244.988 416.425 244.236V239.297H415.172V238.425L416.517 237.736L417.156 235.769H418.384V237.811H421.016V239.297H418.384V244.211C418.384 244.676 418.5 245.022 418.733 245.249C418.965 245.475 419.272 245.589 419.654 245.589ZM426.561 237.637C427.723 237.637 428.6 237.894 429.192 238.409C429.79 238.923 430.088 239.726 430.088 240.816V247H428.702L428.329 245.697H428.262C428.002 246.029 427.734 246.303 427.457 246.519C427.18 246.734 426.859 246.895 426.494 247C426.134 247.111 425.694 247.166 425.174 247.166C424.626 247.166 424.137 247.066 423.705 246.867C423.273 246.662 422.933 246.353 422.684 245.938C422.435 245.522 422.311 244.997 422.311 244.36C422.311 243.414 422.662 242.703 423.365 242.227C424.073 241.751 425.141 241.488 426.569 241.438L428.163 241.38V240.899C428.163 240.263 428.013 239.809 427.714 239.538C427.421 239.266 427.006 239.131 426.469 239.131C426.01 239.131 425.564 239.197 425.133 239.33C424.701 239.463 424.281 239.626 423.871 239.82L423.24 238.442C423.688 238.204 424.198 238.01 424.768 237.861C425.343 237.711 425.941 237.637 426.561 237.637ZM428.154 242.609L426.967 242.65C425.993 242.684 425.31 242.85 424.917 243.148C424.524 243.447 424.328 243.857 424.328 244.377C424.328 244.831 424.463 245.163 424.734 245.373C425.006 245.578 425.362 245.68 425.805 245.68C426.48 245.68 427.039 245.489 427.482 245.107C427.93 244.72 428.154 244.153 428.154 243.406V242.609ZM435.442 251.084C434.197 251.084 433.243 250.86 432.579 250.412C431.915 249.963 431.583 249.335 431.583 248.527C431.583 247.963 431.76 247.484 432.114 247.091C432.468 246.704 432.974 246.436 433.633 246.286C433.384 246.175 433.168 246.004 432.985 245.771C432.808 245.534 432.72 245.271 432.72 244.983C432.72 244.64 432.817 244.347 433.01 244.103C433.204 243.86 433.494 243.624 433.882 243.397C433.4 243.193 433.013 242.861 432.72 242.401C432.432 241.937 432.288 241.391 432.288 240.766C432.288 240.102 432.429 239.538 432.711 239.073C432.994 238.602 433.406 238.245 433.948 238.002C434.491 237.753 435.146 237.628 435.916 237.628C436.082 237.628 436.261 237.639 436.455 237.662C436.654 237.678 436.837 237.7 437.003 237.728C437.174 237.75 437.305 237.775 437.393 237.803H440.572V238.89L439.012 239.181C439.161 239.391 439.28 239.632 439.369 239.903C439.457 240.168 439.501 240.459 439.501 240.774C439.501 241.726 439.172 242.476 438.514 243.024C437.861 243.566 436.959 243.837 435.808 243.837C435.531 243.826 435.263 243.804 435.002 243.771C434.803 243.893 434.651 244.028 434.546 244.178C434.441 244.322 434.388 244.485 434.388 244.667C434.388 244.817 434.441 244.939 434.546 245.033C434.651 245.121 434.806 245.188 435.011 245.232C435.221 245.276 435.476 245.298 435.774 245.298H437.36C438.367 245.298 439.136 245.511 439.667 245.938C440.199 246.364 440.464 246.989 440.464 247.813C440.464 248.859 440.033 249.665 439.169 250.229C438.306 250.799 437.064 251.084 435.442 251.084ZM435.517 249.714C436.198 249.714 436.771 249.648 437.235 249.515C437.7 249.382 438.052 249.191 438.29 248.942C438.528 248.699 438.646 248.408 438.646 248.071C438.646 247.772 438.572 247.542 438.422 247.382C438.273 247.221 438.049 247.111 437.75 247.05C437.451 246.989 437.08 246.958 436.638 246.958H435.193C434.834 246.958 434.515 247.014 434.239 247.125C433.962 247.241 433.746 247.407 433.591 247.623C433.442 247.838 433.367 248.098 433.367 248.403C433.367 248.823 433.553 249.147 433.923 249.374C434.3 249.601 434.831 249.714 435.517 249.714ZM435.899 242.559C436.469 242.559 436.892 242.404 437.169 242.094C437.446 241.779 437.584 241.336 437.584 240.766C437.584 240.146 437.44 239.681 437.152 239.372C436.87 239.062 436.45 238.907 435.891 238.907C435.343 238.907 434.925 239.064 434.637 239.38C434.355 239.695 434.214 240.163 434.214 240.783C434.214 241.342 434.355 241.779 434.637 242.094C434.925 242.404 435.346 242.559 435.899 242.559ZM446.906 237.637C447.061 237.637 447.229 237.645 447.412 237.662C447.595 237.678 447.752 237.7 447.885 237.728L447.703 239.554C447.586 239.521 447.443 239.496 447.271 239.479C447.105 239.463 446.956 239.455 446.823 239.455C446.474 239.455 446.142 239.513 445.827 239.629C445.511 239.74 445.232 239.911 444.988 240.144C444.745 240.37 444.554 240.655 444.416 240.999C444.277 241.342 444.208 241.74 444.208 242.194V247H442.249V237.811H443.776L444.042 239.43H444.133C444.316 239.103 444.543 238.804 444.814 238.533C445.085 238.262 445.395 238.046 445.744 237.886C446.098 237.72 446.485 237.637 446.906 237.637ZM453.189 237.637C454.352 237.637 455.229 237.894 455.821 238.409C456.418 238.923 456.717 239.726 456.717 240.816V247H455.331L454.958 245.697H454.891C454.631 246.029 454.363 246.303 454.086 246.519C453.809 246.734 453.488 246.895 453.123 247C452.763 247.111 452.323 247.166 451.803 247.166C451.255 247.166 450.766 247.066 450.334 246.867C449.902 246.662 449.562 246.353 449.313 245.938C449.064 245.522 448.939 244.997 448.939 244.36C448.939 243.414 449.291 242.703 449.994 242.227C450.702 241.751 451.77 241.488 453.198 241.438L454.792 241.38V240.899C454.792 240.263 454.642 239.809 454.343 239.538C454.05 239.266 453.635 239.131 453.098 239.131C452.639 239.131 452.193 239.197 451.762 239.33C451.33 239.463 450.91 239.626 450.5 239.82L449.869 238.442C450.317 238.204 450.826 238.01 451.396 237.861C451.972 237.711 452.57 237.637 453.189 237.637ZM454.783 242.609L453.596 242.65C452.622 242.684 451.939 242.85 451.546 243.148C451.153 243.447 450.957 243.857 450.957 244.377C450.957 244.831 451.092 245.163 451.363 245.373C451.634 245.578 451.991 245.68 452.434 245.68C453.109 245.68 453.668 245.489 454.111 245.107C454.559 244.72 454.783 244.153 454.783 243.406V242.609ZM469.833 237.637C470.862 237.637 471.637 237.902 472.157 238.434C472.682 238.965 472.945 239.817 472.945 240.99V247H470.995V241.339C470.995 240.642 470.859 240.116 470.588 239.762C470.317 239.408 469.904 239.23 469.351 239.23C468.576 239.23 468.017 239.479 467.674 239.978C467.337 240.47 467.168 241.187 467.168 242.127V247H465.217V241.339C465.217 240.874 465.156 240.487 465.035 240.177C464.918 239.861 464.739 239.626 464.495 239.471C464.252 239.311 463.944 239.23 463.574 239.23C463.037 239.23 462.608 239.352 462.287 239.596C461.972 239.839 461.745 240.199 461.606 240.675C461.468 241.145 461.399 241.723 461.399 242.41V247H459.448V237.811H460.967L461.241 239.048H461.349C461.537 238.727 461.77 238.464 462.046 238.259C462.329 238.049 462.641 237.894 462.984 237.794C463.327 237.689 463.684 237.637 464.055 237.637C464.741 237.637 465.32 237.758 465.79 238.002C466.26 238.24 466.612 238.605 466.844 239.098H466.994C467.281 238.6 467.683 238.232 468.197 237.994C468.712 237.756 469.257 237.637 469.833 237.637Z" fill="white"/>
<path d="M382.016 262.101L372.508 270.987" stroke="white" stroke-width="0.973589" stroke-linecap="round" stroke-linejoin="round"/>
<path d="M382.016 262.101L375.768 278.461L372.508 270.987L364.926 267.553L382.016 262.101Z" stroke="white" stroke-width="0.973589" stroke-linecap="round" stroke-linejoin="round"/>
<path d="M398.559 275.268C398.814 275.268 399.066 275.246 399.315 275.202C399.564 275.152 399.79 275.094 399.995 275.028V276.505C399.779 276.599 399.5 276.679 399.157 276.746C398.814 276.812 398.457 276.845 398.086 276.845C397.566 276.845 397.098 276.76 396.683 276.588C396.268 276.411 395.939 276.109 395.695 275.683C395.452 275.257 395.33 274.668 395.33 273.915V268.976H394.077V268.105L395.422 267.416L396.061 265.448H397.289V267.49H399.921V268.976H397.289V273.89C397.289 274.355 397.405 274.701 397.638 274.928C397.87 275.155 398.177 275.268 398.559 275.268ZM405.524 267.316C406.343 267.316 407.045 267.485 407.632 267.823C408.219 268.16 408.67 268.639 408.985 269.259C409.3 269.878 409.458 270.62 409.458 271.483V272.529H403.324C403.346 273.42 403.584 274.106 404.038 274.588C404.497 275.069 405.139 275.31 405.964 275.31C406.55 275.31 407.076 275.254 407.541 275.144C408.011 275.028 408.495 274.859 408.993 274.637V276.223C408.534 276.439 408.066 276.596 407.59 276.696C407.115 276.796 406.545 276.845 405.88 276.845C404.978 276.845 404.184 276.671 403.498 276.323C402.818 275.968 402.283 275.443 401.896 274.745C401.514 274.048 401.323 273.182 401.323 272.147C401.323 271.118 401.498 270.244 401.846 269.524C402.195 268.805 402.685 268.257 403.316 267.881C403.946 267.504 404.682 267.316 405.524 267.316ZM405.524 268.785C404.909 268.785 404.411 268.985 404.029 269.383C403.653 269.781 403.432 270.365 403.365 271.135H407.549C407.543 270.675 407.466 270.268 407.317 269.914C407.173 269.56 406.951 269.283 406.652 269.084C406.359 268.885 405.983 268.785 405.524 268.785ZM413.617 276.679H411.658V263.763H413.617V276.679ZM420.067 267.316C420.886 267.316 421.588 267.485 422.175 267.823C422.762 268.16 423.213 268.639 423.528 269.259C423.843 269.878 424.001 270.62 424.001 271.483V272.529H417.867C417.889 273.42 418.127 274.106 418.581 274.588C419.04 275.069 419.682 275.31 420.506 275.31C421.093 275.31 421.619 275.254 422.084 275.144C422.554 275.028 423.038 274.859 423.536 274.637V276.223C423.077 276.439 422.609 276.596 422.133 276.696C421.658 276.796 421.088 276.845 420.423 276.845C419.521 276.845 418.727 276.671 418.041 276.323C417.36 275.968 416.826 275.443 416.439 274.745C416.057 274.048 415.866 273.182 415.866 272.147C415.866 271.118 416.041 270.244 416.389 269.524C416.738 268.805 417.228 268.257 417.859 267.881C418.489 267.504 419.225 267.316 420.067 267.316ZM420.067 268.785C419.452 268.785 418.954 268.985 418.572 269.383C418.196 269.781 417.975 270.365 417.908 271.135H422.092C422.086 270.675 422.009 270.268 421.859 269.914C421.716 269.56 421.494 269.283 421.195 269.084C420.902 268.885 420.526 268.785 420.067 268.785ZM428.824 280.763C427.579 280.763 426.624 280.539 425.96 280.091C425.296 279.643 424.964 279.015 424.964 278.207C424.964 277.642 425.141 277.164 425.495 276.771C425.849 276.383 426.356 276.115 427.014 275.966C426.765 275.855 426.549 275.683 426.367 275.451C426.19 275.213 426.101 274.95 426.101 274.662C426.101 274.319 426.198 274.026 426.392 273.782C426.585 273.539 426.876 273.304 427.263 273.077C426.782 272.872 426.394 272.54 426.101 272.081C425.813 271.616 425.67 271.071 425.67 270.446C425.67 269.781 425.811 269.217 426.093 268.752C426.375 268.282 426.787 267.925 427.33 267.681C427.872 267.432 428.528 267.308 429.297 267.308C429.463 267.308 429.643 267.319 429.837 267.341C430.036 267.358 430.218 267.38 430.384 267.407C430.556 267.43 430.686 267.455 430.775 267.482H433.954V268.57L432.393 268.86C432.543 269.07 432.662 269.311 432.75 269.582C432.839 269.848 432.883 270.138 432.883 270.454C432.883 271.406 432.554 272.156 431.895 272.703C431.242 273.246 430.34 273.517 429.189 273.517C428.912 273.506 428.644 273.484 428.384 273.45C428.185 273.572 428.033 273.708 427.927 273.857C427.822 274.001 427.77 274.164 427.77 274.347C427.77 274.496 427.822 274.618 427.927 274.712C428.033 274.801 428.187 274.867 428.392 274.911C428.602 274.956 428.857 274.978 429.156 274.978H430.741C431.748 274.978 432.518 275.191 433.049 275.617C433.58 276.043 433.846 276.668 433.846 277.493C433.846 278.539 433.414 279.344 432.551 279.908C431.688 280.478 430.445 280.763 428.824 280.763ZM428.899 279.394C429.579 279.394 430.152 279.327 430.617 279.195C431.082 279.062 431.433 278.871 431.671 278.622C431.909 278.378 432.028 278.088 432.028 277.75C432.028 277.451 431.953 277.222 431.804 277.061C431.654 276.901 431.43 276.79 431.131 276.729C430.833 276.668 430.462 276.638 430.019 276.638H428.575C428.215 276.638 427.897 276.693 427.62 276.804C427.344 276.92 427.128 277.086 426.973 277.302C426.823 277.518 426.749 277.778 426.749 278.082C426.749 278.503 426.934 278.827 427.305 279.053C427.681 279.28 428.212 279.394 428.899 279.394ZM429.28 272.239C429.85 272.239 430.274 272.084 430.55 271.774C430.827 271.458 430.965 271.016 430.965 270.446C430.965 269.826 430.822 269.361 430.534 269.051C430.252 268.741 429.831 268.586 429.272 268.586C428.724 268.586 428.306 268.744 428.019 269.059C427.736 269.375 427.595 269.842 427.595 270.462C427.595 271.021 427.736 271.458 428.019 271.774C428.306 272.084 428.727 272.239 429.28 272.239ZM440.287 267.316C440.442 267.316 440.611 267.324 440.794 267.341C440.976 267.358 441.134 267.38 441.267 267.407L441.084 269.234C440.968 269.2 440.824 269.176 440.652 269.159C440.486 269.142 440.337 269.134 440.204 269.134C439.856 269.134 439.524 269.192 439.208 269.308C438.893 269.419 438.613 269.591 438.37 269.823C438.126 270.05 437.935 270.335 437.797 270.678C437.659 271.021 437.589 271.42 437.589 271.873V276.679H435.63V267.49H437.158L437.423 269.109H437.515C437.697 268.783 437.924 268.484 438.195 268.213C438.467 267.941 438.776 267.726 439.125 267.565C439.479 267.399 439.867 267.316 440.287 267.316ZM446.571 267.316C447.733 267.316 448.61 267.573 449.202 268.088C449.8 268.603 450.099 269.405 450.099 270.495V276.679H448.713L448.339 275.376H448.273C448.012 275.708 447.744 275.982 447.467 276.198C447.191 276.414 446.87 276.574 446.505 276.679C446.145 276.79 445.705 276.845 445.185 276.845C444.637 276.845 444.147 276.746 443.715 276.547C443.284 276.342 442.943 276.032 442.694 275.617C442.445 275.202 442.321 274.676 442.321 274.04C442.321 273.094 442.672 272.382 443.375 271.906C444.083 271.431 445.151 271.168 446.579 271.118L448.173 271.06V270.578C448.173 269.942 448.024 269.488 447.725 269.217C447.431 268.946 447.016 268.81 446.48 268.81C446.02 268.81 445.575 268.877 445.143 269.01C444.712 269.142 444.291 269.306 443.881 269.499L443.251 268.121C443.699 267.883 444.208 267.69 444.778 267.54C445.353 267.391 445.951 267.316 446.571 267.316ZM448.165 272.288L446.978 272.33C446.004 272.363 445.32 272.529 444.927 272.828C444.534 273.127 444.338 273.536 444.338 274.056C444.338 274.51 444.474 274.842 444.745 275.052C445.016 275.257 445.373 275.36 445.816 275.36C446.491 275.36 447.05 275.169 447.492 274.787C447.941 274.399 448.165 273.832 448.165 273.085V272.288ZM463.214 267.316C464.243 267.316 465.018 267.582 465.538 268.113C466.064 268.644 466.327 269.497 466.327 270.67V276.679H464.376V271.018C464.376 270.321 464.241 269.795 463.969 269.441C463.698 269.087 463.286 268.91 462.733 268.91C461.958 268.91 461.399 269.159 461.056 269.657C460.718 270.149 460.549 270.866 460.549 271.807V276.679H458.599V271.018C458.599 270.553 458.538 270.166 458.416 269.856C458.3 269.541 458.12 269.306 457.877 269.151C457.633 268.99 457.326 268.91 456.955 268.91C456.418 268.91 455.99 269.032 455.669 269.275C455.353 269.519 455.126 269.878 454.988 270.354C454.85 270.825 454.78 271.403 454.78 272.089V276.679H452.83V267.49H454.349L454.623 268.727H454.731C454.919 268.406 455.151 268.143 455.428 267.939C455.71 267.728 456.023 267.573 456.366 267.474C456.709 267.369 457.066 267.316 457.437 267.316C458.123 267.316 458.701 267.438 459.172 267.681C459.642 267.919 459.993 268.285 460.226 268.777H460.375C460.663 268.279 461.064 267.911 461.579 267.673C462.093 267.435 462.638 267.316 463.214 267.316Z" fill="white"/>
<path d="M383.662 297.134C383.553 296.699 383.331 296.3 383.019 295.978C382.707 295.656 382.315 295.422 381.883 295.3C380.307 294.915 374 294.915 374 294.915C374 294.915 367.693 294.915 366.117 295.337C365.685 295.459 365.293 295.693 364.981 296.015C364.669 296.337 364.447 296.735 364.338 297.17C364.05 298.77 363.909 300.394 363.917 302.02C363.906 303.658 364.048 305.293 364.338 306.905C364.458 307.327 364.685 307.71 364.997 308.019C365.308 308.327 365.694 308.55 366.117 308.665C367.693 309.087 374 309.087 374 309.087C374 309.087 380.307 309.087 381.883 308.665C382.315 308.543 382.707 308.31 383.019 307.988C383.331 307.666 383.553 307.267 383.662 306.832C383.948 305.244 384.089 303.633 384.083 302.02C384.094 300.381 383.952 298.746 383.662 297.134Z" stroke="white" stroke-width="1.03125" stroke-linecap="round" stroke-linejoin="round"/>
<path d="M371.938 305.017L377.208 302.02L371.938 299.022V305.017Z" stroke="white" stroke-width="1.03125" stroke-linecap="round" stroke-linejoin="round"/>
<path d="M395.008 299.56H397.133L399.018 304.806C399.101 305.044 399.175 305.279 399.242 305.511C399.314 305.738 399.375 305.962 399.424 306.184C399.48 306.405 399.524 306.627 399.557 306.848H399.607C399.662 306.56 399.74 306.239 399.839 305.885C399.944 305.525 400.061 305.166 400.188 304.806L401.998 299.56H404.098L400.155 310.01C399.928 310.608 399.648 311.117 399.316 311.538C398.99 311.964 398.603 312.285 398.154 312.501C397.706 312.722 397.194 312.833 396.619 312.833C396.342 312.833 396.101 312.816 395.896 312.783C395.692 312.755 395.517 312.725 395.374 312.692V311.131C395.49 311.159 395.636 311.184 395.813 311.206C395.991 311.228 396.173 311.239 396.361 311.239C396.71 311.239 397.012 311.17 397.266 311.031C397.521 310.893 397.736 310.697 397.914 310.442C398.091 310.193 398.237 309.908 398.354 309.587L398.677 308.724L395.008 299.56ZM413.627 304.134C413.627 304.897 413.527 305.575 413.328 306.167C413.129 306.759 412.838 307.26 412.457 307.67C412.075 308.074 411.615 308.384 411.079 308.599C410.542 308.81 409.936 308.915 409.261 308.915C408.63 308.915 408.052 308.81 407.526 308.599C407 308.384 406.544 308.074 406.156 307.67C405.774 307.26 405.478 306.759 405.268 306.167C405.058 305.575 404.953 304.897 404.953 304.134C404.953 303.121 405.127 302.263 405.476 301.56C405.83 300.852 406.333 300.312 406.986 299.942C407.639 299.571 408.417 299.385 409.319 299.385C410.166 299.385 410.913 299.571 411.56 299.942C412.208 300.312 412.714 300.852 413.079 301.56C413.444 302.269 413.627 303.126 413.627 304.134ZM406.961 304.134C406.961 304.803 407.042 305.376 407.202 305.852C407.368 306.328 407.623 306.693 407.966 306.948C408.309 307.197 408.752 307.321 409.294 307.321C409.836 307.321 410.279 307.197 410.622 306.948C410.965 306.693 411.217 306.328 411.377 305.852C411.538 305.376 411.618 304.803 411.618 304.134C411.618 303.464 411.538 302.897 411.377 302.432C411.217 301.962 410.965 301.605 410.622 301.361C410.279 301.112 409.833 300.988 409.286 300.988C408.478 300.988 407.888 301.259 407.518 301.801C407.147 302.343 406.961 303.121 406.961 304.134ZM423.878 299.56V308.749H422.343L422.077 307.512H421.969C421.776 307.827 421.529 308.09 421.23 308.301C420.932 308.505 420.6 308.657 420.234 308.757C419.869 308.862 419.485 308.915 419.081 308.915C418.389 308.915 417.797 308.799 417.304 308.566C416.817 308.328 416.444 307.963 416.184 307.47C415.924 306.978 415.793 306.342 415.793 305.561V299.56H417.752V305.196C417.752 305.91 417.896 306.444 418.184 306.798C418.477 307.152 418.931 307.329 419.545 307.329C420.138 307.329 420.608 307.208 420.957 306.964C421.305 306.721 421.551 306.361 421.695 305.885C421.845 305.409 421.919 304.825 421.919 304.134V299.56H423.878ZM430.096 307.338C430.35 307.338 430.602 307.316 430.851 307.271C431.1 307.221 431.327 307.163 431.532 307.097V308.574C431.316 308.669 431.036 308.749 430.693 308.815C430.35 308.882 429.993 308.915 429.623 308.915C429.102 308.915 428.635 308.829 428.22 308.657C427.805 308.48 427.475 308.179 427.232 307.753C426.988 307.327 426.867 306.737 426.867 305.985V301.046H425.613V300.174L426.958 299.485L427.597 297.518H428.826V299.56H431.457V301.046H428.826V305.96C428.826 306.425 428.942 306.77 429.174 306.997C429.407 307.224 429.714 307.338 430.096 307.338ZM441.41 299.56V308.749H439.874L439.608 307.512H439.5C439.307 307.827 439.061 308.09 438.762 308.301C438.463 308.505 438.131 308.657 437.766 308.757C437.4 308.862 437.016 308.915 436.612 308.915C435.92 308.915 435.328 308.799 434.835 308.566C434.348 308.328 433.975 307.963 433.715 307.47C433.455 306.978 433.325 306.342 433.325 305.561V299.56H435.284V305.196C435.284 305.91 435.428 306.444 435.715 306.798C436.009 307.152 436.462 307.329 437.077 307.329C437.669 307.329 438.139 307.208 438.488 306.964C438.836 306.721 439.083 306.361 439.227 305.885C439.376 305.409 439.451 304.825 439.451 304.134V299.56H441.41ZM446.158 295.833V298.946C446.158 299.305 446.147 299.659 446.125 300.008C446.108 300.351 446.091 300.62 446.075 300.813H446.158C446.407 300.415 446.753 300.08 447.195 299.809C447.644 299.532 448.216 299.394 448.914 299.394C450.004 299.394 450.881 299.795 451.545 300.597C452.209 301.394 452.541 302.576 452.541 304.142C452.541 305.182 452.389 306.057 452.084 306.765C451.78 307.473 451.351 308.01 450.798 308.375C450.25 308.735 449.605 308.915 448.864 308.915C448.167 308.915 447.602 308.788 447.17 308.533C446.744 308.273 446.41 307.971 446.166 307.628H446.025L445.668 308.749H444.207V295.833H446.158ZM448.399 300.979C447.846 300.979 447.406 301.09 447.079 301.311C446.758 301.533 446.526 301.865 446.382 302.307C446.238 302.745 446.163 303.301 446.158 303.976V304.15C446.158 305.174 446.318 305.957 446.639 306.499C446.966 307.042 447.558 307.313 448.416 307.313C449.096 307.313 449.619 307.039 449.984 306.491C450.35 305.938 450.532 305.146 450.532 304.117C450.532 303.077 450.35 302.294 449.984 301.768C449.625 301.242 449.096 300.979 448.399 300.979ZM458.459 299.385C459.278 299.385 459.981 299.554 460.568 299.892C461.154 300.229 461.605 300.708 461.921 301.328C462.236 301.948 462.394 302.689 462.394 303.552V304.598H456.26C456.282 305.489 456.52 306.176 456.974 306.657C457.433 307.138 458.075 307.379 458.899 307.379C459.486 307.379 460.012 307.324 460.477 307.213C460.947 307.097 461.431 306.928 461.929 306.707V308.292C461.47 308.508 461.002 308.666 460.526 308.765C460.05 308.865 459.48 308.915 458.816 308.915C457.914 308.915 457.12 308.74 456.434 308.392C455.753 308.038 455.219 307.512 454.832 306.815C454.45 306.117 454.259 305.251 454.259 304.217C454.259 303.187 454.434 302.313 454.782 301.594C455.131 300.874 455.621 300.326 456.251 299.95C456.882 299.574 457.618 299.385 458.459 299.385ZM458.459 300.855C457.845 300.855 457.347 301.054 456.965 301.452C456.589 301.851 456.368 302.435 456.301 303.204H460.485C460.479 302.745 460.402 302.338 460.252 301.984C460.109 301.629 459.887 301.353 459.588 301.154C459.295 300.954 458.919 300.855 458.459 300.855Z" fill="white"/>
<path d="M381.794 338.703V341.266C381.795 341.504 381.746 341.739 381.651 341.957C381.555 342.175 381.416 342.371 381.24 342.532C381.065 342.693 380.858 342.815 380.633 342.891C380.407 342.968 380.168 342.996 379.932 342.974C377.303 342.689 374.778 341.791 372.559 340.352C370.495 339.04 368.745 337.29 367.434 335.226C365.99 332.998 365.091 330.46 364.811 327.82C364.79 327.583 364.818 327.345 364.893 327.121C364.969 326.896 365.091 326.689 365.251 326.514C365.411 326.339 365.605 326.199 365.822 326.103C366.039 326.007 366.274 325.958 366.511 325.957H369.074C369.488 325.953 369.89 326.1 370.205 326.37C370.519 326.641 370.724 327.016 370.782 327.427C370.89 328.247 371.091 329.052 371.38 329.827C371.495 330.133 371.52 330.465 371.452 330.785C371.384 331.104 371.226 331.397 370.996 331.63L369.911 332.715C371.127 334.853 372.898 336.624 375.037 337.84L376.121 336.755C376.354 336.526 376.647 336.367 376.966 336.299C377.286 336.231 377.618 336.256 377.924 336.371C378.699 336.66 379.504 336.861 380.324 336.969C380.739 337.027 381.118 337.237 381.389 337.556C381.66 337.876 381.804 338.284 381.794 338.703Z" stroke="white" stroke-width="1.06048" stroke-linecap="round" stroke-linejoin="round"/>
<path d="M399.089 334.268H402.409V335.746H399.089V339.099H397.611V335.746H394.299V334.268H397.611V330.881H399.089V334.268ZM411.748 331.637C411.748 332.185 411.637 332.66 411.416 333.064C411.194 333.468 410.89 333.8 410.503 334.061C410.121 334.315 409.678 334.498 409.174 334.608V334.667C410.143 334.788 410.873 335.093 411.366 335.58C411.864 336.067 412.113 336.711 412.113 337.514C412.113 338.216 411.944 338.845 411.607 339.398C411.269 339.946 410.752 340.377 410.054 340.693C409.357 341.008 408.461 341.166 407.365 341.166C406.706 341.166 406.095 341.113 405.53 341.008C404.971 340.903 404.44 340.734 403.937 340.502V338.767C404.451 339.022 404.999 339.218 405.58 339.356C406.161 339.495 406.712 339.564 407.232 339.564C408.245 339.564 408.967 339.376 409.399 339C409.83 338.618 410.046 338.092 410.046 337.422C410.046 336.991 409.933 336.637 409.706 336.36C409.484 336.083 409.138 335.876 408.668 335.737C408.203 335.599 407.603 335.53 406.867 335.53H405.796V333.961H406.875C407.578 333.961 408.142 333.878 408.568 333.712C408.995 333.54 409.302 333.305 409.49 333.006C409.684 332.708 409.78 332.359 409.78 331.96C409.78 331.44 409.612 331.036 409.274 330.749C408.936 330.455 408.436 330.309 407.772 330.309C407.362 330.309 406.989 330.356 406.651 330.45C406.319 330.544 406.012 330.663 405.73 330.807C405.447 330.951 405.179 331.105 404.924 331.271L403.986 329.918C404.446 329.575 404.994 329.285 405.63 329.047C406.266 328.809 407.008 328.69 407.855 328.69C409.1 328.69 410.06 328.958 410.735 329.495C411.41 330.026 411.748 330.74 411.748 331.637ZM415.109 341L419.874 330.574H413.574V328.864H421.974V330.201L417.21 341H415.109ZM427.577 333.413C428.358 333.413 429.044 333.554 429.636 333.836C430.234 334.113 430.698 334.523 431.03 335.065C431.362 335.602 431.528 336.26 431.528 337.041C431.528 337.893 431.349 338.629 430.989 339.249C430.629 339.863 430.101 340.336 429.403 340.668C428.706 341 427.857 341.166 426.855 341.166C426.219 341.166 425.624 341.111 425.07 341C424.523 340.889 424.049 340.723 423.651 340.502V338.742C424.066 338.975 424.564 339.166 425.145 339.315C425.726 339.459 426.282 339.531 426.814 339.531C427.378 339.531 427.862 339.448 428.266 339.282C428.67 339.116 428.98 338.861 429.196 338.518C429.417 338.175 429.528 337.741 429.528 337.215C429.528 336.518 429.304 335.981 428.856 335.604C428.413 335.223 427.718 335.032 426.772 335.032C426.44 335.032 426.086 335.062 425.71 335.123C425.339 335.178 425.029 335.239 424.78 335.306L423.925 334.799L424.381 328.864H430.69V330.583H426.1L425.834 333.604C426.033 333.56 426.271 333.518 426.548 333.479C426.825 333.435 427.168 333.413 427.577 333.413ZM441.398 334.924C441.398 335.903 441.321 336.78 441.166 337.555C441.016 338.324 440.778 338.977 440.452 339.514C440.125 340.051 439.699 340.46 439.173 340.743C438.648 341.025 438.011 341.166 437.264 341.166C436.329 341.166 435.557 340.92 434.948 340.427C434.34 339.929 433.889 339.215 433.595 338.286C433.302 337.35 433.155 336.23 433.155 334.924C433.155 333.618 433.288 332.5 433.554 331.57C433.825 330.635 434.262 329.918 434.865 329.42C435.469 328.922 436.268 328.673 437.264 328.673C438.205 328.673 438.98 328.922 439.589 329.42C440.203 329.913 440.657 330.627 440.95 331.562C441.249 332.492 441.398 333.612 441.398 334.924ZM435.123 334.924C435.123 335.948 435.189 336.803 435.322 337.489C435.46 338.175 435.687 338.69 436.003 339.033C436.318 339.37 436.739 339.539 437.264 339.539C437.79 339.539 438.211 339.37 438.526 339.033C438.841 338.695 439.068 338.183 439.207 337.497C439.351 336.811 439.422 335.953 439.422 334.924C439.422 333.906 439.353 333.053 439.215 332.367C439.077 331.681 438.85 331.166 438.534 330.823C438.219 330.475 437.796 330.3 437.264 330.3C436.733 330.3 436.31 330.475 435.994 330.823C435.684 331.166 435.46 331.681 435.322 332.367C435.189 333.053 435.123 333.906 435.123 334.924ZM451.127 334.924C451.127 335.903 451.049 336.78 450.894 337.555C450.745 338.324 450.507 338.977 450.18 339.514C449.854 340.051 449.428 340.46 448.902 340.743C448.376 341.025 447.74 341.166 446.993 341.166C446.058 341.166 445.286 340.92 444.677 340.427C444.068 339.929 443.617 339.215 443.324 338.286C443.031 337.35 442.884 336.23 442.884 334.924C442.884 333.618 443.017 332.5 443.282 331.57C443.554 330.635 443.991 329.918 444.594 329.42C445.197 328.922 445.997 328.673 446.993 328.673C447.934 328.673 448.708 328.922 449.317 329.42C449.931 329.913 450.385 330.627 450.678 331.562C450.977 332.492 451.127 333.612 451.127 334.924ZM444.851 334.924C444.851 335.948 444.918 336.803 445.05 337.489C445.189 338.175 445.416 338.69 445.731 339.033C446.047 339.37 446.467 339.539 446.993 339.539C447.519 339.539 447.939 339.37 448.255 339.033C448.57 338.695 448.797 338.183 448.935 337.497C449.079 336.811 449.151 335.953 449.151 334.924C449.151 333.906 449.082 333.053 448.943 332.367C448.805 331.681 448.578 331.166 448.263 330.823C447.947 330.475 447.524 330.3 446.993 330.3C446.462 330.3 446.038 330.475 445.723 330.823C445.413 331.166 445.189 331.681 445.05 332.367C444.918 333.053 444.851 333.906 444.851 334.924ZM460.855 334.924C460.855 335.903 460.778 336.78 460.623 337.555C460.473 338.324 460.235 338.977 459.909 339.514C459.582 340.051 459.156 340.46 458.63 340.743C458.105 341.025 457.468 341.166 456.721 341.166C455.786 341.166 455.014 340.92 454.405 340.427C453.797 339.929 453.346 339.215 453.052 338.286C452.759 337.35 452.612 336.23 452.612 334.924C452.612 333.618 452.745 332.5 453.011 331.57C453.282 330.635 453.719 329.918 454.322 329.42C454.926 328.922 455.725 328.673 456.721 328.673C457.662 328.673 458.437 328.922 459.046 329.42C459.66 329.913 460.114 330.627 460.407 331.562C460.706 332.492 460.855 333.612 460.855 334.924ZM454.58 334.924C454.58 335.948 454.646 336.803 454.779 337.489C454.917 338.175 455.144 338.69 455.46 339.033C455.775 339.37 456.196 339.539 456.721 339.539C457.247 339.539 457.668 339.37 457.983 339.033C458.298 338.695 458.525 338.183 458.664 337.497C458.808 336.811 458.88 335.953 458.88 334.924C458.88 333.906 458.81 333.053 458.672 332.367C458.534 331.681 458.307 331.166 457.991 330.823C457.676 330.475 457.253 330.3 456.721 330.3C456.19 330.3 455.767 330.475 455.451 330.823C455.141 331.166 454.917 331.681 454.779 332.367C454.646 333.053 454.58 333.906 454.58 334.924ZM470.584 334.924C470.584 335.903 470.506 336.78 470.351 337.555C470.202 338.324 469.964 338.977 469.637 339.514C469.311 340.051 468.885 340.46 468.359 340.743C467.833 341.025 467.197 341.166 466.45 341.166C465.515 341.166 464.743 340.92 464.134 340.427C463.525 339.929 463.074 339.215 462.781 338.286C462.488 337.35 462.341 336.23 462.341 334.924C462.341 333.618 462.474 332.5 462.739 331.57C463.011 330.635 463.448 329.918 464.051 329.42C464.654 328.922 465.454 328.673 466.45 328.673C467.391 328.673 468.165 328.922 468.774 329.42C469.388 329.913 469.842 330.627 470.135 331.562C470.434 332.492 470.584 333.612 470.584 334.924ZM464.308 334.924C464.308 335.948 464.375 336.803 464.507 337.489C464.646 338.175 464.873 338.69 465.188 339.033C465.504 339.37 465.924 339.539 466.45 339.539C466.976 339.539 467.396 339.37 467.712 339.033C468.027 338.695 468.254 338.183 468.392 337.497C468.536 336.811 468.608 335.953 468.608 334.924C468.608 333.906 468.539 333.053 468.401 332.367C468.262 331.681 468.035 331.166 467.72 330.823C467.404 330.475 466.981 330.3 466.45 330.3C465.919 330.3 465.495 330.475 465.18 330.823C464.87 331.166 464.646 331.681 464.507 332.367C464.375 333.053 464.308 333.906 464.308 334.924ZM480.312 334.924C480.312 335.903 480.235 336.78 480.08 337.555C479.93 338.324 479.692 338.977 479.366 339.514C479.039 340.051 478.613 340.46 478.088 340.743C477.562 341.025 476.925 341.166 476.178 341.166C475.243 341.166 474.471 340.92 473.862 340.427C473.254 339.929 472.803 339.215 472.509 338.286C472.216 337.35 472.069 336.23 472.069 334.924C472.069 333.618 472.202 332.5 472.468 331.57C472.739 330.635 473.176 329.918 473.779 329.42C474.383 328.922 475.182 328.673 476.178 328.673C477.119 328.673 477.894 328.922 478.503 329.42C479.117 329.913 479.571 330.627 479.864 331.562C480.163 332.492 480.312 333.612 480.312 334.924ZM474.037 334.924C474.037 335.948 474.103 336.803 474.236 337.489C474.374 338.175 474.601 338.69 474.917 339.033C475.232 339.37 475.653 339.539 476.178 339.539C476.704 339.539 477.125 339.37 477.44 339.033C477.755 338.695 477.982 338.183 478.121 337.497C478.265 336.811 478.337 335.953 478.337 334.924C478.337 333.906 478.267 333.053 478.129 332.367C477.991 331.681 477.764 331.166 477.448 330.823C477.133 330.475 476.71 330.3 476.178 330.3C475.647 330.3 475.224 330.475 474.908 330.823C474.598 331.166 474.374 331.681 474.236 332.367C474.103 333.053 474.037 333.906 474.037 334.924ZM490.041 334.924C490.041 335.903 489.963 336.78 489.808 337.555C489.659 338.324 489.421 338.977 489.094 339.514C488.768 340.051 488.342 340.46 487.816 340.743C487.29 341.025 486.654 341.166 485.907 341.166C484.972 341.166 484.2 340.92 483.591 340.427C482.982 339.929 482.531 339.215 482.238 338.286C481.945 337.35 481.798 336.23 481.798 334.924C481.798 333.618 481.931 332.5 482.196 331.57C482.468 330.635 482.905 329.918 483.508 329.42C484.111 328.922 484.911 328.673 485.907 328.673C486.848 328.673 487.622 328.922 488.231 329.42C488.845 329.913 489.299 330.627 489.592 331.562C489.891 332.492 490.041 333.612 490.041 334.924ZM483.765 334.924C483.765 335.948 483.832 336.803 483.964 337.489C484.103 338.175 484.33 338.69 484.645 339.033C484.961 339.37 485.381 339.539 485.907 339.539C486.433 339.539 486.853 339.37 487.169 339.033C487.484 338.695 487.711 338.183 487.849 337.497C487.993 336.811 488.065 335.953 488.065 334.924C488.065 333.906 487.996 333.053 487.858 332.367C487.719 331.681 487.492 331.166 487.177 330.823C486.861 330.475 486.438 330.3 485.907 330.3C485.376 330.3 484.952 330.475 484.637 330.823C484.327 331.166 484.103 331.681 483.964 332.367C483.832 333.053 483.765 333.906 483.765 334.924ZM499.769 334.924C499.769 335.903 499.692 336.78 499.537 337.555C499.387 338.324 499.149 338.977 498.823 339.514C498.496 340.051 498.07 340.46 497.545 340.743C497.019 341.025 496.382 341.166 495.635 341.166C494.7 341.166 493.928 340.92 493.319 340.427C492.711 339.929 492.26 339.215 491.966 338.286C491.673 337.35 491.526 336.23 491.526 334.924C491.526 333.618 491.659 332.5 491.925 331.57C492.196 330.635 492.633 329.918 493.236 329.42C493.84 328.922 494.639 328.673 495.635 328.673C496.576 328.673 497.351 328.922 497.96 329.42C498.574 329.913 499.028 330.627 499.321 331.562C499.62 332.492 499.769 333.612 499.769 334.924ZM493.494 334.924C493.494 335.948 493.56 336.803 493.693 337.489C493.831 338.175 494.058 338.69 494.374 339.033C494.689 339.37 495.11 339.539 495.635 339.539C496.161 339.539 496.582 339.37 496.897 339.033C497.213 338.695 497.439 338.183 497.578 337.497C497.722 336.811 497.794 335.953 497.794 334.924C497.794 333.906 497.724 333.053 497.586 332.367C497.448 331.681 497.221 331.166 496.905 330.823C496.59 330.475 496.167 330.3 495.635 330.3C495.104 330.3 494.681 330.475 494.365 330.823C494.055 331.166 493.831 331.681 493.693 332.367C493.56 333.053 493.494 333.906 493.494 334.924ZM509.498 334.924C509.498 335.903 509.42 336.78 509.265 337.555C509.116 338.324 508.878 338.977 508.551 339.514C508.225 340.051 507.799 340.46 507.273 340.743C506.747 341.025 506.111 341.166 505.364 341.166C504.429 341.166 503.657 340.92 503.048 340.427C502.439 339.929 501.988 339.215 501.695 338.286C501.402 337.35 501.255 336.23 501.255 334.924C501.255 333.618 501.388 332.5 501.653 331.57C501.925 330.635 502.362 329.918 502.965 329.42C503.568 328.922 504.368 328.673 505.364 328.673C506.305 328.673 507.079 328.922 507.688 329.42C508.302 329.913 508.756 330.627 509.049 331.562C509.348 332.492 509.498 333.612 509.498 334.924ZM503.222 334.924C503.222 335.948 503.289 336.803 503.422 337.489C503.56 338.175 503.787 338.69 504.102 339.033C504.418 339.37 504.838 339.539 505.364 339.539C505.89 339.539 506.31 339.37 506.626 339.033C506.941 338.695 507.168 338.183 507.306 337.497C507.45 336.811 507.522 335.953 507.522 334.924C507.522 333.906 507.453 333.053 507.315 332.367C507.176 331.681 506.949 331.166 506.634 330.823C506.318 330.475 505.895 330.3 505.364 330.3C504.833 330.3 504.409 330.475 504.094 330.823C503.784 331.166 503.56 331.681 503.422 332.367C503.289 333.053 503.222 333.906 503.222 334.924ZM519.226 334.924C519.226 335.903 519.149 336.78 518.994 337.555C518.844 338.324 518.606 338.977 518.28 339.514C517.953 340.051 517.527 340.46 517.002 340.743C516.476 341.025 515.839 341.166 515.092 341.166C514.157 341.166 513.385 340.92 512.776 340.427C512.168 339.929 511.717 339.215 511.423 338.286C511.13 337.35 510.984 336.23 510.984 334.924C510.984 333.618 511.116 332.5 511.382 331.57C511.653 330.635 512.09 329.918 512.693 329.42C513.297 328.922 514.096 328.673 515.092 328.673C516.033 328.673 516.808 328.922 517.417 329.42C518.031 329.913 518.485 330.627 518.778 331.562C519.077 332.492 519.226 333.612 519.226 334.924ZM512.951 334.924C512.951 335.948 513.017 336.803 513.15 337.489C513.288 338.175 513.515 338.69 513.831 339.033C514.146 339.37 514.567 339.539 515.092 339.539C515.618 339.539 516.039 339.37 516.354 339.033C516.67 338.695 516.896 338.183 517.035 337.497C517.179 336.811 517.251 335.953 517.251 334.924C517.251 333.906 517.181 333.053 517.043 332.367C516.905 331.681 516.678 331.166 516.362 330.823C516.047 330.475 515.624 330.3 515.092 330.3C514.561 330.3 514.138 330.475 513.822 330.823C513.512 331.166 513.288 331.681 513.15 332.367C513.017 333.053 512.951 333.906 512.951 334.924Z" fill="white"/>
<path d="M1339.21 291C1345.39 291 1350.4 296.023 1350.4 302.22L1350.4 302.222C1354.85 302.275 1358.51 305.606 1359.09 309.919H1364.46C1369.18 309.919 1373 313.744 1373 318.461V326.457C1373 331.175 1369.18 334.999 1364.46 334.999H1311.54C1306.82 334.999 1303 331.175 1303 326.457V318.461C1303 314.865 1305.22 311.79 1308.37 310.53C1309.8 304.15 1315.84 299.36 1323.08 299.359C1324.88 299.359 1326.6 299.658 1328.2 300.2C1329.15 294.968 1333.71 291 1339.21 291Z" fill="#4E84CB"/>
<path d="M1337.31 297.16C1342.8 297.16 1347.24 301.406 1347.24 306.642L1347.24 306.644C1351.19 306.689 1354.44 309.503 1354.96 313.147H1358.75C1363.47 313.147 1367.29 316.971 1367.29 321.689V325.797C1367.29 330.515 1363.47 334.339 1358.75 334.339H1313.74C1309.02 334.339 1305.19 330.515 1305.19 325.797V321.689C1305.19 318.364 1307.1 315.484 1309.87 314.073C1310.96 308.478 1316.43 304.224 1323.01 304.224C1324.6 304.224 1326.13 304.475 1327.55 304.934C1328.39 300.513 1332.44 297.161 1337.31 297.16Z" fill="#8FBAF3"/>
<g filter="url(#filter0_d_10_760)">
<path d="M1315.28 304.882C1315.46 304.793 1315.7 304.983 1315.83 305.141C1315.99 305.33 1316.02 305.597 1316.03 305.864C1316.03 305.887 1316.03 305.905 1316.03 305.92C1316.03 305.896 1316.04 305.864 1316.05 305.829C1316.09 305.673 1316.32 305.241 1316.47 305.378C1316.69 305.578 1316.86 305.854 1317.04 306.115C1317.32 306.531 1317.4 307.325 1317.27 307.852C1317.22 308.082 1317.29 307.858 1317.39 307.803C1317.53 307.73 1317.74 307.655 1317.88 307.739C1318.08 307.855 1318.22 308.2 1318.29 308.444C1318.4 308.797 1318.46 309.176 1318.5 309.553C1318.51 309.65 1318.56 309.942 1318.49 310.043C1318.44 310.124 1318.61 310.241 1318.68 310.301C1319.01 310.609 1318.67 311.169 1318.54 311.697C1318.57 311.696 1318.6 311.694 1318.62 311.694C1318.96 311.678 1319.25 311.739 1319.49 311.877C1319.76 312.015 1319.93 312.246 1320 312.568C1320.02 312.184 1320.16 311.9 1320.42 311.716C1320.68 311.532 1320.97 311.448 1321.29 311.463C1321.56 311.476 1321.81 311.555 1322.02 311.7C1322.04 311.589 1322.06 311.557 1322.27 311.152C1322.45 310.821 1323.08 310.655 1322.87 310.066C1322.81 309.908 1322.83 309.759 1322.85 309.573C1322.9 309.19 1322.92 308.745 1323.06 308.367C1323.19 308.024 1323.39 307.696 1323.58 307.381C1323.65 307.266 1323.66 307.212 1323.78 307.206C1323.9 307.201 1324.01 307.219 1324.12 307.257C1324.22 307.294 1324.16 307.254 1324.15 307.16C1324.1 306.775 1324.23 306.148 1324.45 305.78C1324.77 305.219 1325.31 304.88 1325.84 304.899C1326.04 304.906 1326.16 305.183 1326.2 305.384C1326.26 305.626 1326.17 305.881 1326.05 306.118C1326.04 306.138 1326.03 306.154 1326.02 306.167C1326.03 306.147 1326.05 306.122 1326.08 306.095C1326.19 305.976 1326.59 305.701 1326.66 305.894C1326.76 306.174 1326.79 306.497 1326.82 306.81C1326.88 307.31 1326.58 308.052 1326.22 308.458C1326.07 308.636 1326.24 308.471 1326.35 308.471C1326.51 308.471 1326.73 308.501 1326.82 308.643C1326.94 308.839 1326.9 309.207 1326.85 309.458C1326.78 309.822 1326.81 309.934 1326.66 310.284C1326.62 310.373 1326.39 310.671 1326.1 311.152C1325.42 311.543 1325.3 312.095 1325.32 312.179C1325.54 312.791 1325.9 312.865 1325.87 313.21C1325.95 313.449 1325.94 313.702 1325.84 313.97C1326.09 313.74 1326.33 313.634 1326.58 313.649C1326.82 313.664 1327.02 313.756 1327.18 313.924C1327.35 314.093 1327.42 314.3 1327.41 314.545C1327.41 314.791 1327.28 315.028 1327.02 315.258C1327.35 315.166 1327.64 315.213 1327.87 315.397C1328.11 315.581 1328.28 315.826 1328.37 316.132C1328.47 316.424 1328.46 316.708 1328.35 316.984C1328.26 317.259 1328.04 317.451 1327.71 317.558C1327.71 318.064 1327.64 318.402 1327.5 318.571C1327.36 318.739 1327.22 318.739 1327.09 318.571C1326.95 318.402 1326.88 318.064 1326.88 317.558C1326.88 317.834 1326.76 318.056 1326.53 318.225C1326.32 318.394 1326.04 318.509 1325.7 318.571C1325.38 318.617 1325.05 318.617 1324.72 318.571C1324.39 318.509 1324.12 318.394 1323.89 318.225C1323.67 318.056 1323.57 317.834 1323.57 317.558C1323.26 317.88 1322.98 318.026 1322.74 317.995C1322.49 317.949 1322.35 317.803 1322.3 317.558C1322.28 317.345 1322.38 317.108 1322.6 316.848C1322.29 317.166 1322 317.319 1321.73 317.305C1321.44 317.274 1321.27 317.121 1321.22 316.845C1321.08 316.998 1320.95 317.014 1320.83 316.891C1320.69 317.182 1320.48 317.443 1320.19 317.673C1319.91 317.888 1319.61 318.019 1319.29 318.065C1319.55 318.31 1319.58 318.585 1319.38 318.892C1319.2 319.199 1318.81 319.337 1318.21 319.306C1318.73 319.321 1319.07 319.406 1319.24 319.559C1319.41 319.712 1319.41 319.867 1319.24 320.02C1319.07 320.173 1318.73 320.249 1318.21 320.249C1318.7 320.234 1319.05 320.318 1319.27 320.502C1319.48 320.671 1319.55 320.863 1319.47 321.078C1319.4 321.292 1319.17 321.453 1318.81 321.56C1319.17 321.606 1319.47 321.821 1319.7 322.204C1319.95 322.588 1320.05 322.963 1320.02 323.331C1320.12 323.316 1320.19 323.355 1320.25 323.447C1320.42 323.14 1320.68 322.91 1321.01 322.756C1321.37 322.588 1321.71 322.534 1322.05 322.595C1322.4 322.656 1322.68 322.872 1322.88 323.24C1322.8 322.918 1322.85 322.649 1323.01 322.434C1323.2 322.22 1323.43 322.082 1323.7 322.021C1324 321.944 1324.27 321.959 1324.53 322.067C1324.79 322.174 1324.96 322.388 1325.04 322.71C1325.04 322.266 1325.15 321.929 1325.38 321.699C1325.61 321.469 1325.88 321.354 1326.19 321.354C1326.49 321.354 1326.76 321.469 1326.99 321.699C1327.22 321.929 1327.34 322.266 1327.34 322.71C1327.77 322.664 1328.07 322.749 1328.24 322.963C1328.4 323.178 1328.43 323.408 1328.3 323.654C1328.18 323.884 1327.9 324.014 1327.45 324.044C1327.76 324.244 1327.92 324.489 1327.94 324.781C1327.97 325.057 1327.9 325.325 1327.73 325.585C1327.56 325.831 1327.34 326.007 1327.06 326.115C1326.8 326.207 1326.53 326.153 1326.23 325.953C1326.39 326.26 1326.37 326.567 1326.19 326.873C1326 327.165 1325.74 327.402 1325.38 327.586C1325.03 327.77 1324.68 327.855 1324.32 327.839C1323.97 327.824 1323.72 327.663 1323.57 327.357C1323.66 327.817 1323.63 328.139 1323.5 328.323C1323.37 328.506 1323.21 328.537 1323.01 328.414C1322.82 328.307 1322.67 328.031 1322.58 327.586C1322.61 328.123 1322.45 328.491 1322.09 328.691C1321.74 328.89 1321.28 328.905 1320.71 328.737C1320.16 328.568 1319.59 328.2 1318.99 327.632C1318.88 328 1318.68 328.246 1318.39 328.369C1318.1 328.491 1317.79 328.506 1317.47 328.414C1317.16 328.338 1316.91 328.176 1316.71 327.931C1316.53 327.67 1316.49 327.349 1316.6 326.965C1316.32 327.425 1316.05 327.678 1315.77 327.724C1315.49 327.755 1315.31 327.64 1315.22 327.379C1315.13 327.103 1315.22 326.743 1315.49 326.298C1315.22 326.497 1314.93 326.536 1314.62 326.413C1314.33 326.276 1314.08 326.061 1313.88 325.77C1313.68 325.463 1313.58 325.148 1313.56 324.827C1313.55 324.505 1313.68 324.244 1313.95 324.044C1313.46 324.182 1313.11 324.198 1312.89 324.09C1312.7 323.983 1312.66 323.838 1312.78 323.654C1312.92 323.454 1313.24 323.293 1313.74 323.17C1313.33 323.186 1313.02 323.094 1312.8 322.895C1312.59 322.696 1312.47 322.457 1312.43 322.181C1312.42 321.89 1312.5 321.63 1312.69 321.4C1312.89 321.17 1313.19 321.039 1313.61 321.008C1313.25 321.008 1312.99 320.863 1312.8 320.572C1312.63 320.265 1312.55 319.927 1312.55 319.559C1312.55 319.176 1312.64 318.838 1312.82 318.547C1313.01 318.256 1313.28 318.111 1313.63 318.111C1313.39 318.019 1313.22 317.834 1313.15 317.558C1313.09 317.282 1313.09 316.975 1313.15 316.638C1313.21 316.286 1313.32 315.956 1313.49 315.65C1313.66 315.328 1313.85 315.082 1314.07 314.913C1314.3 314.729 1314.53 314.684 1314.78 314.776C1314.57 314.485 1314.5 314.193 1314.6 313.902C1314.69 313.61 1314.87 313.365 1315.13 313.165C1315.39 312.966 1315.67 312.867 1315.98 312.867C1316.04 312.864 1316.09 312.867 1316.15 312.875C1316.14 312.851 1316.14 312.826 1316.13 312.802C1315.95 312.086 1314.76 311.698 1314.76 310.928C1314.76 310.554 1315.51 311.263 1315.05 310.84C1314.93 310.727 1314.87 310.589 1314.81 310.413C1314.67 310.052 1314.48 309.648 1314.43 309.247C1314.39 308.885 1314.42 308.499 1314.43 308.134C1314.44 308.001 1314.43 307.946 1314.53 307.886C1314.63 307.827 1314.74 307.788 1314.85 307.773C1314.96 307.758 1314.89 307.747 1314.84 307.67C1314.61 307.356 1314.44 306.737 1314.46 306.312C1314.48 305.665 1314.81 305.11 1315.28 304.882ZM1355.96 315.949C1356.2 315.826 1356.46 315.796 1356.72 315.857C1356.98 315.903 1357.19 316.033 1357.34 316.247C1357.51 316.447 1357.56 316.715 1357.5 317.052C1357.61 316.838 1357.76 316.723 1357.96 316.707C1358.17 316.692 1358.37 316.738 1358.56 316.845C1358.76 316.937 1358.9 317.075 1358.97 317.259C1359.06 317.443 1359.05 317.643 1358.93 317.858C1359.17 317.689 1359.42 317.658 1359.66 317.765C1359.91 317.857 1360.11 318.019 1360.26 318.248C1360.43 318.478 1360.52 318.731 1360.54 319.007C1360.55 319.268 1360.44 319.475 1360.19 319.628C1360.45 319.613 1360.67 319.705 1360.83 319.905C1361.02 320.104 1361.15 320.365 1361.23 320.687C1361.32 320.993 1361.36 321.316 1361.34 321.653C1361.33 321.975 1361.25 322.251 1361.11 322.481C1360.99 322.711 1360.8 322.841 1360.54 322.871C1360.86 322.933 1361.07 323.094 1361.18 323.355C1361.29 323.6 1361.31 323.876 1361.25 324.182C1361.2 324.473 1361.07 324.719 1360.86 324.918C1360.66 325.118 1360.41 325.187 1360.1 325.125C1360.33 325.279 1360.45 325.463 1360.47 325.677C1360.5 325.876 1360.45 326.061 1360.33 326.23C1360.21 326.398 1360.04 326.513 1359.85 326.575C1359.65 326.62 1359.43 326.567 1359.2 326.413C1359.34 326.628 1359.38 326.835 1359.32 327.035C1359.26 327.218 1359.13 327.364 1358.95 327.471C1358.78 327.578 1358.59 327.625 1358.37 327.61C1358.17 327.594 1358.01 327.479 1357.89 327.264C1357.98 327.555 1357.94 327.786 1357.75 327.954C1357.57 328.123 1357.35 328.192 1357.11 328.162C1356.88 328.116 1356.72 327.939 1356.63 327.632C1356.69 328 1356.62 328.253 1356.42 328.391C1356.22 328.544 1356 328.576 1355.75 328.484C1355.52 328.392 1355.38 328.169 1355.34 327.817C1355.37 328.476 1355.14 328.805 1354.65 328.805C1354.16 328.805 1353.37 328.422 1352.3 327.656C1352.22 327.885 1352.08 328.039 1351.87 328.116C1351.67 328.177 1351.45 328.169 1351.22 328.092C1351.01 328.015 1350.83 327.893 1350.69 327.724C1350.57 327.54 1350.55 327.334 1350.62 327.104C1350.48 327.226 1350.3 327.234 1350.07 327.126C1349.84 327.019 1349.6 326.85 1349.36 326.62C1349.13 326.391 1348.92 326.138 1348.74 325.862C1348.57 325.57 1348.45 325.301 1348.39 325.056C1348.35 324.811 1348.39 324.635 1348.53 324.528C1348.12 324.589 1347.82 324.527 1347.63 324.343C1347.46 324.144 1347.43 323.929 1347.54 323.7C1347.65 323.454 1347.91 323.301 1348.32 323.24C1348.09 323.24 1347.92 323.155 1347.79 322.987C1347.69 322.818 1347.63 322.626 1347.61 322.412C1347.61 322.182 1347.66 321.982 1347.77 321.814C1347.89 321.63 1348.07 321.538 1348.3 321.537C1348.05 321.491 1347.89 321.353 1347.79 321.123C1347.72 320.893 1347.7 320.648 1347.75 320.387C1347.81 320.111 1347.92 319.882 1348.07 319.698C1348.24 319.514 1348.45 319.445 1348.69 319.491C1348.43 319.322 1348.28 319.122 1348.25 318.892C1348.22 318.662 1348.26 318.463 1348.37 318.294C1348.49 318.11 1348.66 317.996 1348.87 317.95C1349.1 317.888 1349.35 317.942 1349.61 318.111C1349.47 317.911 1349.43 317.719 1349.5 317.536C1349.56 317.336 1349.67 317.183 1349.84 317.076C1350.01 316.953 1350.19 316.899 1350.39 316.914C1350.59 316.93 1350.76 317.037 1350.9 317.237C1350.79 316.915 1350.8 316.677 1350.92 316.524C1351.04 316.355 1351.2 316.293 1351.38 316.339C1351.58 316.385 1351.74 316.569 1351.87 316.891C1351.82 316.646 1351.86 316.455 1351.98 316.317C1352.1 316.179 1352.26 316.095 1352.44 316.064C1352.64 316.018 1352.82 316.04 1352.99 316.132C1353.16 316.224 1353.27 316.386 1353.31 316.616C1353.31 316.386 1353.42 316.217 1353.64 316.11C1353.87 315.987 1354.13 315.925 1354.42 315.925C1354.71 315.925 1354.96 315.987 1355.18 316.11C1355.41 316.217 1355.52 316.386 1355.52 316.616C1355.58 316.294 1355.73 316.071 1355.96 315.949ZM1334.75 311.694C1335.06 311.694 1335.33 311.785 1335.56 311.969C1335.79 312.138 1335.9 312.407 1335.9 312.775C1336.07 312.545 1336.26 312.422 1336.48 312.407C1336.69 312.376 1336.88 312.422 1337.05 312.544C1337.22 312.667 1337.33 312.836 1337.38 313.05C1337.44 313.265 1337.38 313.487 1337.21 313.717C1337.61 313.717 1337.91 313.855 1338.11 314.131C1338.33 314.392 1338.43 314.699 1338.43 315.051C1338.43 315.388 1338.33 315.695 1338.11 315.971C1337.91 316.232 1337.61 316.363 1337.21 316.363C1337.6 316.363 1337.88 316.493 1338.07 316.753C1338.26 317.014 1338.36 317.313 1338.36 317.651C1338.36 317.988 1338.26 318.287 1338.07 318.547C1337.88 318.808 1337.6 318.939 1337.21 318.939C1337.74 318.939 1338.08 319.015 1338.25 319.168C1338.42 319.322 1338.42 319.475 1338.25 319.628C1338.08 319.782 1337.74 319.859 1337.21 319.859C1337.74 319.859 1338.1 319.958 1338.3 320.158C1338.49 320.357 1338.53 320.571 1338.39 320.801C1338.26 321.016 1337.98 321.154 1337.54 321.215C1337.95 321.231 1338.26 321.423 1338.48 321.79C1338.71 322.158 1338.81 322.534 1338.78 322.917C1339.08 322.841 1339.4 322.834 1339.72 322.895C1340.04 322.956 1340.31 323.094 1340.53 323.308C1340.76 323.523 1340.87 323.807 1340.87 324.16C1340.87 323.822 1340.98 323.554 1341.19 323.355C1341.42 323.156 1341.69 323.025 1342 322.963C1342.32 322.902 1342.64 322.902 1342.96 322.963C1343.29 323.025 1343.55 323.156 1343.77 323.355C1343.98 323.554 1344.09 323.822 1344.09 324.16C1344.49 324.129 1344.8 324.19 1345.01 324.343C1345.23 324.496 1345.34 324.688 1345.36 324.918C1345.37 325.133 1345.28 325.332 1345.08 325.516C1344.9 325.7 1344.61 325.8 1344.21 325.816C1344.45 326.046 1344.56 326.299 1344.53 326.575C1344.51 326.85 1344.41 327.103 1344.21 327.333C1344.01 327.548 1343.77 327.686 1343.49 327.747C1343.22 327.793 1342.96 327.709 1342.71 327.495C1342.71 327.862 1342.58 328.131 1342.32 328.299C1342.06 328.483 1341.76 328.576 1341.42 328.576C1341.09 328.576 1340.79 328.483 1340.53 328.299C1340.27 328.131 1340.14 327.862 1340.14 327.495C1340.14 327.878 1339.99 328.169 1339.7 328.369C1339.42 328.568 1339.09 328.667 1338.71 328.667C1338.33 328.667 1337.99 328.568 1337.7 328.369C1337.42 328.169 1337.28 327.878 1337.28 327.495C1337.28 327.878 1337.15 328.169 1336.87 328.369C1336.59 328.568 1336.27 328.667 1335.9 328.667C1335.54 328.667 1335.21 328.568 1334.94 328.369C1334.66 328.169 1334.52 327.878 1334.52 327.495C1334.52 327.954 1334.43 328.276 1334.25 328.46C1334.06 328.66 1333.85 328.675 1333.6 328.506C1333.37 328.338 1333.17 327.954 1332.98 327.357C1332.81 326.743 1332.74 325.861 1332.75 324.711C1332.2 324.711 1331.83 324.635 1331.65 324.482C1331.46 324.329 1331.46 324.182 1331.65 324.044C1331.83 323.891 1332.2 323.815 1332.75 323.815C1332.32 323.815 1332 323.714 1331.79 323.515C1331.57 323.316 1331.46 323.093 1331.46 322.848C1331.46 322.588 1331.57 322.365 1331.79 322.181C1332 321.982 1332.32 321.882 1332.75 321.882C1332.34 321.882 1332.03 321.798 1331.83 321.629C1331.63 321.461 1331.53 321.269 1331.53 321.054C1331.53 320.84 1331.63 320.648 1331.83 320.48C1332.03 320.311 1332.34 320.226 1332.75 320.226C1332.38 320.226 1332.1 320.111 1331.9 319.881C1331.72 319.651 1331.63 319.383 1331.63 319.077C1331.63 318.77 1331.72 318.502 1331.9 318.272C1332.1 318.042 1332.38 317.926 1332.75 317.926C1332.22 317.926 1331.86 317.819 1331.67 317.605C1331.49 317.39 1331.49 317.175 1331.67 316.96C1331.86 316.746 1332.22 316.638 1332.75 316.638C1332.29 316.638 1331.95 316.547 1331.72 316.363C1331.5 316.163 1331.4 315.941 1331.4 315.696C1331.4 315.435 1331.5 315.213 1331.72 315.029C1331.95 314.829 1332.29 314.73 1332.75 314.73C1332.49 314.607 1332.34 314.422 1332.29 314.177C1332.25 313.917 1332.28 313.664 1332.38 313.418C1332.51 313.158 1332.68 312.959 1332.89 312.821C1333.11 312.683 1333.34 312.667 1333.6 312.775C1333.6 312.407 1333.72 312.138 1333.95 311.969C1334.18 311.785 1334.45 311.694 1334.75 311.694ZM1354.1 319.606C1354.08 319.728 1354.03 319.805 1353.96 319.835C1353.88 319.866 1353.8 319.851 1353.7 319.789C1353.75 320.004 1353.74 320.257 1353.66 320.548C1353.6 320.824 1353.5 321.07 1353.36 321.285C1353.22 321.499 1353.07 321.607 1352.9 321.607C1353.08 321.653 1353.2 321.783 1353.24 321.997C1353.31 322.212 1353.3 322.427 1353.22 322.641C1353.16 322.815 1353.04 322.913 1352.88 322.935C1353.02 322.939 1353.14 323.033 1353.24 323.216C1353.38 323.415 1353.48 323.653 1353.52 323.929C1353.58 324.205 1353.59 324.443 1353.54 324.642C1353.76 324.519 1354.08 324.45 1354.51 324.435C1354.94 324.42 1355.41 324.29 1355.94 324.044C1355.77 324.029 1355.64 323.906 1355.57 323.676C1355.51 323.446 1355.48 323.178 1355.48 322.871C1355.49 322.55 1355.54 322.266 1355.61 322.021C1355.69 321.776 1355.81 321.629 1355.96 321.583C1355.81 321.583 1355.65 321.476 1355.5 321.261C1355.36 321.047 1355.25 320.801 1355.15 320.526C1355.08 320.234 1355.05 319.981 1355.06 319.766C1354.92 319.889 1354.76 319.935 1354.56 319.905C1354.36 319.874 1354.2 319.774 1354.1 319.606Z" fill="white"/>
</g>
<path d="M1319.72 314.643C1319.72 315.178 1319.46 315.515 1318.56 315.805C1318.01 314.837 1317.11 316.05 1317.11 315.515C1317.11 314.98 1317.4 314.449 1318.44 314.192C1318.97 314.192 1319.72 314.108 1319.72 314.643Z" fill="url(#paint1_linear_10_760)"/>
<path d="M1322.83 314.205C1322.78 314.715 1323 315.062 1323.83 315.426C1324.45 314.558 1325.19 315.801 1325.24 315.292C1325.3 314.782 1325.07 314.248 1324.1 313.901C1323.59 313.849 1322.88 313.696 1322.83 314.205Z" fill="url(#paint2_linear_10_760)"/>
</g>
</g>
<defs>
<filter id="filter0_d_10_760" x="1312.43" y="304.859" width="51.107" height="26.1887" filterUnits="userSpaceOnUse" color-interpolation-filters="sRGB">
<feFlood flood-opacity="0" result="BackgroundImageFix"/>
<feColorMatrix in="SourceAlpha" type="matrix" values="0 0 0 0 0 0 0 0 0 0 0 0 0 0 0 0 0 0 127 0" result="hardAlpha"/>
<feOffset dx="1.56827" dy="1.56827"/>
<feGaussianBlur stdDeviation="0.313654"/>
<feComposite in2="hardAlpha" operator="out"/>
<feColorMatrix type="matrix" values="0 0 0 0 0 0 0 0 0 0 0 0 0 0 0 0 0 0 0.25 0"/>
<feBlend mode="normal" in2="BackgroundImageFix" result="effect1_dropShadow_10_760"/>
<feBlend mode="normal" in="SourceGraphic" in2="effect1_dropShadow_10_760" result="shape"/>
</filter>
<radialGradient id="paint0_radial_10_760" cx="0" cy="0" r="1" gradientUnits="userSpaceOnUse" gradientTransform="translate(291.5 394.5) rotate(10.4327) scale(1543.52 427.672)">
<stop stop-color="#1F599A"/>
<stop offset="0.38" stop-color="#123F73"/>
<stop offset="1" stop-color="#102945"/>
</radialGradient>
<linearGradient id="paint1_linear_10_760" x1="1318.42" y1="314.187" x2="1318.42" y2="315.805" gradientUnits="userSpaceOnUse">
<stop stop-color="#3D516F"/>
<stop offset="1" stop-color="#202122"/>
</linearGradient>
<linearGradient id="paint2_linear_10_760" x1="1324.12" y1="313.899" x2="1323.97" y2="315.441" gradientUnits="userSpaceOnUse">
<stop stop-color="#3D516F"/>
<stop offset="1" stop-color="#202122"/>
</linearGradient>
<clipPath id="clip0_10_760">
<rect width="1440" height="368" fill="white"/>
</clipPath>
</defs>
</svg>
