<svg width="70" height="44" viewBox="0 0 70 44" fill="none" xmlns="http://www.w3.org/2000/svg">
<path d="M36.207 0C42.3875 0.000154497 47.3982 5.02331 47.3984 11.2197L47.3975 11.2217C51.847 11.2753 55.5073 14.606 56.0918 18.9189H61.458C66.1754 18.9191 69.9995 22.7437 70 27.4609V35.457C70 40.1747 66.1756 43.9989 61.458 43.999H8.54199C3.82436 43.9989 0 40.1747 0 35.457V27.4609C0.000347996 23.8655 2.22273 20.7902 5.36816 19.5303C6.79914 13.1502 12.8415 8.35954 20.0781 8.35938C21.8766 8.35938 23.6007 8.65757 25.1992 9.2002C26.1482 3.96781 30.7143 0 36.207 0Z" fill="#4E84CB"/>
<path d="M34.3145 6.16035C39.7977 6.16035 44.2432 10.4056 44.2432 15.6418L44.2422 15.6437C48.1895 15.6887 51.437 18.5025 51.9561 22.1467H55.7529C60.4703 22.1469 64.2946 25.9714 64.2949 30.6887V34.7971C64.2949 39.5147 60.4705 43.3388 55.7529 43.3391H10.7363C6.01875 43.3389 2.19434 39.5147 2.19434 34.7971V30.6887C2.19457 27.3639 4.09504 24.4838 6.86816 23.0725C7.9567 17.4781 13.4254 13.2239 20.0068 13.2238C21.6022 13.2238 23.1318 13.4754 24.5498 13.9338C25.392 9.51296 29.4421 6.16055 34.3145 6.16035Z" fill="#8FBAF3"/>
<g filter="url(#filter0_d_181_129)">
<path d="M12.2792 13.8823C12.4637 13.7934 12.6956 13.9831 12.828 14.1411C12.9868 14.3304 13.0249 14.5976 13.0282 14.8637C13.0285 14.8866 13.0285 14.9055 13.0282 14.9203C13.0312 14.8963 13.0375 14.8645 13.0468 14.8295C13.0883 14.6734 13.3156 14.2413 13.4687 14.3784C13.6897 14.5776 13.8594 14.8545 14.036 15.1147C14.3183 15.5307 14.4034 16.325 14.2743 16.852C14.2181 17.0817 14.2914 16.8578 14.3935 16.8032C14.5312 16.7302 14.7392 16.6546 14.8847 16.7387C15.0848 16.8547 15.2154 17.1998 15.2919 17.4438C15.4028 17.7971 15.4639 18.176 15.498 18.5532C15.5067 18.6501 15.5601 18.9423 15.4941 19.0434C15.4409 19.1243 15.6123 19.241 15.6777 19.3012C16.0115 19.6093 15.6742 20.1695 15.5439 20.6967C15.5695 20.6959 15.5952 20.6938 15.621 20.6938C15.9582 20.6785 16.2498 20.7395 16.495 20.8774C16.7557 21.0154 16.9252 21.2458 17.0019 21.5678C17.0172 21.1845 17.1553 20.9002 17.4159 20.7162C17.6764 20.5325 17.9673 20.4481 18.289 20.4633C18.5633 20.4758 18.8069 20.5554 19.0204 20.6996C19.0391 20.5887 19.0605 20.5572 19.2734 20.1518C19.4475 19.8207 20.0814 19.6553 19.871 19.0659C19.8146 18.9078 19.827 18.7591 19.8505 18.5727C19.8988 18.1898 19.9217 17.7446 20.0624 17.3666C20.19 17.0241 20.3934 16.6961 20.578 16.3813C20.6456 16.266 20.6615 16.2117 20.7802 16.2065C20.8977 16.2014 21.0128 16.2186 21.1181 16.2573C21.2192 16.2943 21.1651 16.2536 21.1513 16.1596C21.0953 15.7753 21.2338 15.1483 21.4462 14.7797C21.7695 14.219 22.3149 13.8801 22.8388 13.8989C23.0434 13.9063 23.1611 14.1826 23.205 14.3842C23.2575 14.6259 23.1666 14.8806 23.0458 15.1176C23.0354 15.138 23.0265 15.1545 23.0194 15.1674C23.0333 15.1475 23.0536 15.1217 23.078 15.0952C23.1879 14.9761 23.5897 14.7007 23.661 14.894C23.7641 15.1736 23.7858 15.4972 23.8212 15.81C23.8777 16.3099 23.5836 17.0524 23.2245 17.4584C23.0675 17.636 23.2377 17.4713 23.3534 17.4711C23.5092 17.4709 23.7277 17.5007 23.8173 17.643C23.9408 17.8391 23.8962 18.2066 23.8505 18.4584C23.7845 18.8225 23.806 18.9344 23.661 19.2836C23.6237 19.3735 23.3883 19.6715 23.0985 20.1518C22.4223 20.543 22.2953 21.0954 22.3251 21.1791C22.5432 21.7911 22.8994 21.8648 22.873 22.2104C22.9497 22.4493 22.941 22.7022 22.8437 22.9702C23.0888 22.7405 23.3339 22.6337 23.579 22.6489C23.8243 22.6642 24.0243 22.7556 24.1777 22.9243C24.3463 23.0929 24.4224 23.3001 24.4071 23.5453C24.4071 23.7906 24.2771 24.0283 24.0165 24.2582C24.3538 24.1663 24.6371 24.2129 24.8671 24.3969C25.1124 24.5809 25.2819 24.8256 25.3739 25.1323C25.4659 25.4236 25.4578 25.7078 25.3505 25.9838C25.2585 26.2595 25.0438 26.4507 24.7069 26.558C24.7069 27.064 24.6379 27.4021 24.4999 27.5707C24.362 27.7393 24.2238 27.7391 24.0859 27.5707C23.9479 27.4021 23.8788 27.064 23.8788 26.558C23.8788 26.834 23.7631 27.0564 23.5331 27.225C23.3185 27.3937 23.0423 27.5094 22.705 27.5707C22.3832 27.6167 22.0538 27.6167 21.7167 27.5707C21.3947 27.5094 21.1186 27.3937 20.8886 27.225C20.674 27.0564 20.5663 26.834 20.5663 26.558C20.2597 26.88 19.9835 27.0262 19.7382 26.9955C19.493 26.9495 19.3477 26.8033 19.3017 26.558C19.2752 26.3446 19.3758 26.1079 19.6044 25.8481C19.293 26.1661 19.001 26.3188 18.7265 26.3051C18.4352 26.2744 18.2666 26.1211 18.2206 25.8452C18.0826 25.9985 17.9517 26.0137 17.829 25.8911C17.691 26.1824 17.4767 26.4433 17.1855 26.6733C16.9095 26.8879 16.61 27.0189 16.288 27.0649C16.5485 27.3101 16.5798 27.5855 16.3808 27.892C16.1968 28.1986 15.8057 28.3367 15.2079 28.3061C15.7286 28.3214 16.0733 28.406 16.2421 28.559C16.4108 28.7124 16.4108 28.8666 16.2421 29.02C16.0733 29.173 15.7286 29.2494 15.2079 29.2495C15.6983 29.2342 16.0509 29.3184 16.2655 29.5024C16.4802 29.671 16.5492 29.8629 16.4726 30.0776C16.3959 30.2922 16.1734 30.4527 15.8056 30.56C16.1735 30.606 16.4721 30.8213 16.7021 31.2045C16.9474 31.5879 17.055 31.9635 17.0243 32.3315C17.1163 32.3161 17.1935 32.3547 17.2548 32.4467C17.4235 32.14 17.6763 31.9096 18.0136 31.7563C18.3662 31.5877 18.7115 31.5338 19.0487 31.5952C19.4013 31.6565 19.6776 31.8718 19.8769 32.2397C19.8002 31.9177 19.8459 31.6487 20.0146 31.434C20.1984 31.2197 20.4284 31.0823 20.704 31.0209C20.9953 30.9443 21.2715 30.9596 21.5321 31.0668C21.7928 31.1741 21.9613 31.3885 22.038 31.7104C22.038 31.2658 22.1537 30.9287 22.3837 30.6987C22.6137 30.4687 22.8818 30.354 23.1884 30.3539C23.495 30.3539 23.7631 30.4687 23.9931 30.6987C24.2231 30.9287 24.3388 31.2658 24.3388 31.7104C24.7678 31.6645 25.0666 31.7488 25.2353 31.9633C25.4039 32.178 25.4273 32.4084 25.3046 32.6537C25.1819 32.8837 24.8976 33.0137 24.453 33.0444C24.7597 33.2437 24.9211 33.4894 24.9364 33.7807C24.967 34.0566 24.898 34.3248 24.7294 34.5854C24.5607 34.8307 24.3384 35.0074 24.0624 35.1147C23.8018 35.2066 23.5256 35.1529 23.2343 34.9536C23.3876 35.2602 23.3724 35.5668 23.1884 35.8735C23.0044 36.1647 22.7362 36.4024 22.3837 36.5864C22.031 36.7704 21.6778 36.8546 21.3251 36.8393C20.9727 36.8239 20.7196 36.6633 20.5663 36.3569C20.6582 36.8167 20.635 37.1387 20.497 37.3227C20.3744 37.5063 20.2137 37.537 20.0146 37.4145C19.8152 37.3072 19.6691 37.031 19.5771 36.5864C19.6077 37.123 19.4473 37.4915 19.0946 37.6909C18.7421 37.8901 18.2819 37.9053 17.7148 37.7368C17.1628 37.5681 16.5872 37.1996 15.9892 36.6323C15.8818 37.0003 15.6828 37.2459 15.3915 37.3686C15.1002 37.4912 14.7935 37.5064 14.4716 37.4145C14.1649 37.3378 13.9121 37.1764 13.7128 36.9311C13.5289 36.6704 13.4903 36.3486 13.5976 35.9653C13.3216 36.4252 13.0454 36.678 12.7694 36.7241C12.4934 36.7547 12.3097 36.64 12.2177 36.3793C12.1257 36.1033 12.2171 35.7429 12.4931 35.2983C12.2171 35.4975 11.9257 35.5362 11.6191 35.4135C11.328 35.2756 11.0829 35.061 10.8837 34.77C10.6844 34.4633 10.5768 34.1486 10.5614 33.8266C10.5461 33.5047 10.6762 33.2437 10.9521 33.0444C10.4616 33.1823 10.1091 33.1976 9.89445 33.0903C9.69531 32.983 9.65681 32.8376 9.77921 32.6537C9.91718 32.4545 10.2392 32.293 10.745 32.1703C10.3315 32.1856 10.0172 32.094 9.80265 31.895C9.58798 31.6956 9.46515 31.4571 9.43449 31.1811C9.41925 30.89 9.50363 30.6297 9.68742 30.3998C9.88673 30.1699 10.1934 30.0389 10.6073 30.0082C10.2548 30.0082 9.98663 29.8628 9.80265 29.5717C9.63398 29.265 9.54972 28.927 9.54972 28.559C9.54979 28.1759 9.6412 27.8385 9.82511 27.5473C10.0091 27.256 10.2781 27.1108 10.6308 27.1108C10.3854 27.0188 10.224 26.834 10.1474 26.558C10.0861 26.2822 10.0861 25.9753 10.1474 25.6381C10.2087 25.2857 10.3236 24.9563 10.4921 24.6498C10.6607 24.3279 10.8527 24.0822 11.0673 23.9135C11.2973 23.7295 11.5349 23.6839 11.7802 23.7758C11.5656 23.4846 11.5047 23.193 11.5966 22.9018C11.6886 22.6105 11.8652 22.3648 12.1259 22.1655C12.3865 21.9663 12.6699 21.8666 12.9765 21.8666C13.0359 21.8637 13.0934 21.8669 13.1493 21.8754C13.145 21.8506 13.1409 21.826 13.1347 21.8022C12.9468 21.0862 11.7587 20.6976 11.7587 19.9282C11.7591 19.5544 12.5137 20.2633 12.0536 19.8403C11.9303 19.7268 11.8723 19.5894 11.8066 19.4135C11.6714 19.0521 11.4846 18.6477 11.4335 18.2475C11.3873 17.8848 11.4154 17.4991 11.4325 17.1342C11.4387 17.0011 11.4271 16.946 11.5292 16.8862C11.6309 16.8267 11.7413 16.7879 11.8525 16.7729C11.9589 16.7585 11.8917 16.7472 11.8359 16.6703C11.6078 16.3563 11.4393 15.7373 11.456 15.312C11.4815 14.6648 11.807 14.1103 12.2792 13.8823ZM52.9589 24.9487C53.2041 24.826 53.4571 24.7956 53.7177 24.8569C53.9783 24.9029 54.1855 25.0329 54.3388 25.2475C54.5074 25.4468 54.5612 25.715 54.4999 26.0522C54.6072 25.8377 54.7607 25.7229 54.9599 25.7075C55.1745 25.6921 55.3745 25.7378 55.5585 25.8452C55.7577 25.9371 55.8959 26.0753 55.9726 26.2592C56.0646 26.4432 56.0484 26.6432 55.9257 26.8578C56.171 26.6892 56.4168 26.6578 56.662 26.7651C56.9073 26.8571 57.1064 27.0186 57.2597 27.2485C57.4283 27.4784 57.5207 27.7313 57.536 28.0073C57.5514 28.2679 57.4365 28.475 57.1913 28.6284C57.4519 28.6131 57.6663 28.7055 57.8349 28.9047C58.0189 29.1041 58.1498 29.365 58.2265 29.687C58.3184 29.9935 58.3561 30.3156 58.3407 30.6528C58.3254 30.9746 58.2492 31.251 58.1112 31.4809C57.9886 31.7107 57.7966 31.8409 57.536 31.8715C57.858 31.9329 58.0723 32.0943 58.1796 32.3549C58.2868 32.6001 58.3102 32.8756 58.2489 33.1821C58.203 33.4733 58.0729 33.7191 57.8583 33.9184C57.6591 34.1176 57.406 34.1866 57.0995 34.1254C57.3292 34.2786 57.4513 34.4627 57.4667 34.6772C57.4974 34.8765 57.4517 35.0613 57.329 35.2299C57.2064 35.3984 57.0448 35.5134 56.8456 35.5746C56.6464 35.6204 56.4319 35.5667 56.2021 35.4135C56.3401 35.6282 56.3786 35.8353 56.3173 36.0346C56.256 36.2185 56.133 36.3638 55.9491 36.4711C55.7805 36.5785 55.5886 36.6251 55.3739 36.6098C55.1747 36.5944 55.0142 36.4787 54.8915 36.2641C54.9835 36.5554 54.9368 36.7859 54.7528 36.9545C54.5689 37.123 54.3545 37.1922 54.1093 37.1616C53.8793 37.1156 53.7179 36.9389 53.6259 36.6323C53.6872 37.0002 53.6182 37.253 53.4189 37.3911C53.2195 37.5444 52.9972 37.5758 52.7519 37.4838C52.522 37.3918 52.3838 37.1693 52.3378 36.8168C52.3684 37.4758 52.1388 37.805 51.6484 37.8051C51.1577 37.8051 50.375 37.4224 49.3017 36.6557C49.225 36.8855 49.0797 37.039 48.8652 37.1157C48.6658 37.177 48.4506 37.1689 48.2206 37.0922C48.0062 37.0155 47.8302 36.8926 47.6923 36.7241C47.5698 36.5402 47.5465 36.3337 47.623 36.1039C47.485 36.2263 47.301 36.2336 47.0712 36.1264C46.8413 36.0191 46.6036 35.8505 46.3583 35.6205C46.1284 35.3906 45.9212 35.1377 45.7372 34.8618C45.5686 34.5704 45.4538 34.3014 45.3925 34.0561C45.3466 33.811 45.3923 33.6351 45.5302 33.5278C45.1162 33.5891 44.8167 33.5272 44.6327 33.3432C44.4644 33.144 44.4338 32.9294 44.5409 32.6996C44.6483 32.4543 44.9092 32.301 45.3232 32.2397C45.0932 32.2397 44.9165 32.1554 44.7939 31.9868C44.6865 31.8181 44.6256 31.6262 44.6103 31.4116C44.6103 31.1816 44.6641 30.9825 44.7714 30.8139C44.894 30.63 45.0699 30.5376 45.2997 30.5375C45.0546 30.4915 44.8858 30.3534 44.7939 30.1235C44.7172 29.8935 44.702 29.6478 44.748 29.3871C44.8093 29.1113 44.917 28.8816 45.0702 28.6977C45.2389 28.5137 45.446 28.4447 45.6913 28.4907C45.4307 28.322 45.2845 28.122 45.2538 27.892C45.2233 27.6622 45.2618 27.4629 45.3691 27.2944C45.4917 27.1105 45.6604 26.9957 45.8749 26.9496C46.1049 26.8883 46.3506 26.9421 46.6112 27.1108C46.4733 26.9115 46.4347 26.7195 46.496 26.5356C46.5573 26.3364 46.6722 26.1829 46.8407 26.0756C47.0094 25.953 47.1941 25.8992 47.3935 25.9145C47.5926 25.9299 47.7614 26.0376 47.8993 26.2368C47.7921 25.915 47.7994 25.6772 47.9218 25.5239C48.0444 25.3553 48.1979 25.2935 48.3818 25.3393C48.581 25.3853 48.7425 25.5693 48.8652 25.8911C48.8193 25.6459 48.8578 25.4548 48.9804 25.3168C49.1031 25.1788 49.2563 25.0946 49.4403 25.0639C49.6396 25.018 49.8235 25.0403 49.9921 25.1323C50.1608 25.2243 50.2684 25.3857 50.3144 25.6157C50.3144 25.3858 50.4213 25.2171 50.6357 25.1098C50.8656 24.9872 51.1266 24.9253 51.4179 24.9252C51.7091 24.9252 51.962 24.9872 52.1767 25.1098C52.4067 25.2171 52.5224 25.3857 52.5224 25.6157C52.5837 25.2938 52.729 25.0714 52.9589 24.9487ZM31.7538 20.6938C32.0603 20.6938 32.3286 20.7853 32.5585 20.9692C32.7885 21.1378 32.9032 21.4068 32.9032 21.7748C33.0718 21.5449 33.2638 21.4221 33.4784 21.4067C33.6931 21.376 33.885 21.4217 34.0536 21.5444C34.2222 21.667 34.3299 21.8357 34.3759 22.0502C34.4372 22.2648 34.3833 22.4873 34.2148 22.7172C34.6132 22.7173 34.9119 22.8555 35.1112 23.1313C35.3259 23.3919 35.4335 23.6987 35.4335 24.0512C35.4335 24.3885 35.3259 24.6951 35.1112 24.9711C34.9119 25.2318 34.6134 25.3627 34.2148 25.3627C34.5979 25.3628 34.8814 25.4929 35.0653 25.7534C35.2647 26.014 35.3642 26.3135 35.3642 26.6508C35.3641 26.988 35.2646 27.2867 35.0653 27.5473C34.8814 27.8079 34.598 27.9389 34.2148 27.9389C34.736 27.9389 35.0813 28.0151 35.2499 28.1684C35.4184 28.3216 35.4183 28.4751 35.2499 28.6284C35.0813 28.7817 34.736 28.8588 34.2148 28.8588C34.736 28.8588 35.0965 28.9583 35.2958 29.1577C35.4949 29.3569 35.5254 29.5714 35.3876 29.8012C35.265 30.0158 34.9815 30.1539 34.537 30.2153C34.9508 30.2307 35.2648 30.4226 35.4794 30.7905C35.7094 31.1585 35.8089 31.5341 35.7782 31.9174C36.0849 31.8408 36.3996 31.8336 36.7216 31.895C37.0434 31.9563 37.3117 32.0936 37.5263 32.308C37.7563 32.5227 37.872 32.8069 37.872 33.1596C37.872 32.8225 37.9789 32.5542 38.1933 32.3549C38.4233 32.1556 38.6923 32.0247 38.9989 31.9633C39.3208 31.902 39.6429 31.902 39.9648 31.9633C40.2867 32.0247 40.5548 32.1556 40.7694 32.3549C40.984 32.5542 41.0917 32.8223 41.0917 33.1596C41.4903 33.129 41.797 33.1899 42.0116 33.3432C42.2263 33.4965 42.341 33.6884 42.3564 33.9184C42.3717 34.1329 42.28 34.3322 42.081 34.5161C41.897 34.7 41.6055 34.8005 41.2069 34.8159C41.452 35.0458 41.5589 35.2988 41.5282 35.5746C41.5129 35.8505 41.4061 36.1035 41.2069 36.3334C41.0077 36.548 40.7699 36.6861 40.4941 36.7475C40.2181 36.7935 39.9571 36.7091 39.7118 36.4946C39.7118 36.8625 39.5809 37.1306 39.3202 37.2993C39.0596 37.4832 38.761 37.5756 38.4237 37.5756C38.0864 37.5756 37.787 37.4833 37.5263 37.2993C37.2659 37.1306 37.1357 36.8624 37.1357 36.4946C37.1356 36.8779 36.9895 37.1693 36.6982 37.3686C36.4223 37.5677 36.0929 37.6674 35.7099 37.6674C35.3265 37.6674 34.9885 37.5679 34.6972 37.3686C34.4214 37.1693 34.2841 36.8777 34.2841 36.4946C34.2841 36.8778 34.1459 37.1693 33.87 37.3686C33.594 37.5679 33.2712 37.6674 32.9032 37.6674C32.5354 37.6673 32.2133 37.5679 31.9374 37.3686C31.6615 37.1693 31.5234 36.8778 31.5234 36.4946C31.5233 36.9543 31.4318 37.2764 31.248 37.4604C31.064 37.6597 30.8488 37.675 30.6034 37.5063C30.3736 37.3376 30.1663 36.9545 29.9823 36.3569C29.8137 35.7435 29.7375 34.8614 29.7528 33.7114C29.2009 33.7114 28.8324 33.6352 28.6484 33.4819C28.4644 33.3286 28.4645 33.1823 28.6484 33.0444C28.8324 32.891 29.2008 32.8149 29.7528 32.8149C29.3235 32.8149 29.0017 32.7144 28.787 32.5151C28.5724 32.3157 28.4648 32.0934 28.4648 31.8481C28.4649 31.5876 28.5725 31.365 28.787 31.1811C29.0017 30.982 29.3238 30.8823 29.7528 30.8823C29.3389 30.8823 29.0323 30.7979 28.8329 30.6293C28.6336 30.4607 28.5341 30.2688 28.5341 30.0541C28.5342 29.8396 28.6337 29.6485 28.8329 29.4799C29.0323 29.3113 29.3388 29.226 29.7528 29.226C29.3848 29.226 29.1006 29.1113 28.9013 28.8813C28.7175 28.6514 28.6259 28.3831 28.6259 28.0766C28.6259 27.7701 28.7175 27.5018 28.9013 27.2719C29.1006 27.0419 29.3848 26.9262 29.7528 26.9262C29.2165 26.9262 28.8559 26.8194 28.6718 26.6049C28.4878 26.3903 28.4878 26.1751 28.6718 25.9604C28.8558 25.7458 29.2163 25.6381 29.7528 25.6381C29.293 25.6381 28.9477 25.5466 28.7177 25.3627C28.5031 25.1635 28.3955 24.941 28.3954 24.6957C28.3954 24.4351 28.5031 24.2127 28.7177 24.0287C28.9477 23.8294 29.2928 23.7299 29.7528 23.7299C29.4922 23.6073 29.3389 23.4225 29.2929 23.1772C29.2469 22.9166 29.2774 22.6637 29.3847 22.4184C29.5073 22.1578 29.676 21.9587 29.8905 21.8207C30.1052 21.6827 30.3428 21.6675 30.6034 21.7748C30.6034 21.4069 30.7183 21.1379 30.9482 20.9692C31.1782 20.7852 31.4472 20.6938 31.7538 20.6938ZM51.0956 28.6059C51.0802 28.7283 51.0345 28.8048 50.9579 28.8354C50.8813 28.866 50.797 28.8508 50.705 28.7895C50.751 29.0041 50.7357 29.257 50.6591 29.5483C50.5978 29.8243 50.4983 30.0699 50.3603 30.2846C50.2223 30.4992 50.0689 30.6068 49.9003 30.6069C50.0841 30.6529 50.1991 30.7829 50.245 30.9975C50.3063 31.212 50.2991 31.4266 50.2226 31.6411C50.1555 31.8155 50.0408 31.9132 49.8798 31.935C50.0183 31.9391 50.1401 32.0327 50.245 32.2162C50.383 32.4155 50.4754 32.6533 50.5214 32.9291C50.5827 33.205 50.5898 33.4428 50.5439 33.642C50.7585 33.5194 51.0806 33.4504 51.5097 33.435C51.939 33.4197 52.4151 33.2897 52.9364 33.0444C52.7678 33.029 52.6449 32.9062 52.5683 32.6762C52.507 32.4463 52.4765 32.1781 52.4765 31.8715C52.4918 31.5497 52.5376 31.2662 52.6142 31.0209C52.6908 30.7757 52.8056 30.6295 52.9589 30.5834C52.8056 30.5833 52.6522 30.4758 52.4989 30.2612C52.3611 30.0467 52.2462 29.8016 52.1542 29.5258C52.0775 29.2345 52.0471 28.9807 52.0624 28.7661C51.9245 28.8886 51.7557 28.9352 51.5566 28.9047C51.3573 28.8741 51.203 28.7745 51.0956 28.6059Z" fill="white"/>
</g>
<path d="M16.7219 23.6429C16.7219 24.1778 16.4587 24.5146 15.5626 24.8052C15.0095 23.8366 14.1134 25.0496 14.1134 24.5146C14.1134 23.9797 14.4032 23.4491 15.4393 23.1916C15.9729 23.1916 16.7219 23.1079 16.7219 23.6429Z" fill="url(#paint0_linear_181_129)"/>
<path d="M19.8296 23.2055C19.7778 23.7152 19.9973 24.0618 20.8276 24.4265C21.4513 23.5578 22.1923 24.8012 22.2441 24.2916C22.296 23.7819 22.0697 23.2481 21.1021 22.9013C20.5909 22.849 19.8815 22.6959 19.8296 23.2055Z" fill="url(#paint1_linear_181_129)"/>
<defs>
<filter id="filter0_d_181_129" x="9.43274" y="13.8596" width="51.1068" height="26.1887" filterUnits="userSpaceOnUse" color-interpolation-filters="sRGB">
<feFlood flood-opacity="0" result="BackgroundImageFix"/>
<feColorMatrix in="SourceAlpha" type="matrix" values="0 0 0 0 0 0 0 0 0 0 0 0 0 0 0 0 0 0 127 0" result="hardAlpha"/>
<feOffset dx="1.56827" dy="1.56827"/>
<feGaussianBlur stdDeviation="0.313654"/>
<feComposite in2="hardAlpha" operator="out"/>
<feColorMatrix type="matrix" values="0 0 0 0 0 0 0 0 0 0 0 0 0 0 0 0 0 0 0.25 0"/>
<feBlend mode="normal" in2="BackgroundImageFix" result="effect1_dropShadow_181_129"/>
<feBlend mode="normal" in="SourceGraphic" in2="effect1_dropShadow_181_129" result="shape"/>
</filter>
<linearGradient id="paint0_linear_181_129" x1="15.4177" y1="23.1869" x2="15.4177" y2="24.8052" gradientUnits="userSpaceOnUse">
<stop stop-color="#3D516F"/>
<stop offset="1" stop-color="#202122"/>
</linearGradient>
<linearGradient id="paint1_linear_181_129" x1="21.1233" y1="22.8989" x2="20.9657" y2="24.4406" gradientUnits="userSpaceOnUse">
<stop stop-color="#3D516F"/>
<stop offset="1" stop-color="#202122"/>
</linearGradient>
</defs>
</svg>
